<?xml version="1.0" encoding="utf-8"?>
<!-- Generator: Adobe Illustrator 16.0.0, SVG Export Plug-In . SVG Version: 6.00 Build 0)  -->
<!DOCTYPE svg PUBLIC "-//W3C//DTD SVG 1.1//EN" "http://www.w3.org/Graphics/SVG/1.1/DTD/svg11.dtd">
<svg version="1.1" id="Layer_1" xmlns="http://www.w3.org/2000/svg" xmlns:xlink="http://www.w3.org/1999/xlink" x="0px" y="0px"
	 width="133px" height="89.5px" viewBox="0 0 133 89.5" enable-background="new 0 0 133 89.5" xml:space="preserve">
<rect x="0.5" y="0.5" fill="#F5F5F5" stroke="#E4E4E4" stroke-miterlimit="10" width="132" height="89"/>
<line fill="none" stroke="#3B3F40" stroke-width="0.5" stroke-miterlimit="10" stroke-dasharray="2" x1="132.5" y1="0.5" x2="0.5" y2="17.666"/>
<g>
	<path fill="#3B3F40" d="M122.943,14.867c-0.379,0-0.712-0.1-0.999-0.299s-0.503-0.471-0.647-0.814h-0.059l-0.41,0.996h-0.732
		l1.934-9.117h0.984c-0.199,0.945-0.353,1.669-0.46,2.171s-0.255,1.089-0.442,1.761h0.053c0.363-0.461,0.722-0.8,1.075-1.017
		s0.718-0.325,1.093-0.325c0.551,0,0.98,0.193,1.289,0.58s0.463,0.918,0.463,1.594c0,0.816-0.134,1.571-0.401,2.265
		s-0.641,1.234-1.119,1.623S123.545,14.867,122.943,14.867z M124.033,9.037c-0.375,0-0.757,0.186-1.146,0.557
		s-0.697,0.838-0.926,1.4s-0.343,1.139-0.343,1.729c0,0.43,0.108,0.759,0.325,0.987s0.53,0.343,0.94,0.343
		c0.387,0,0.747-0.158,1.081-0.475s0.603-0.767,0.806-1.351s0.305-1.204,0.305-1.86C125.076,9.48,124.729,9.037,124.033,9.037z"/>
</g>
<ellipse fill="#FFFFFF" cx="111.214" cy="25.084" rx="6.119" ry="6.083"/>
<g>
	<path fill="#46B7BF" d="M109.577,33.035c1.882,0.451,3.769,0.205,5.387-0.57l2.041-1.393h-0.002
		c1.12-1.047,1.958-2.424,2.343-4.027c1.043-4.352-1.64-8.727-5.991-9.77s-8.726,1.641-9.769,5.992
		C102.542,27.62,105.226,31.992,109.577,33.035L109.577,33.035z M107.596,22.062l1.734,0.007c0.68-0.787,1.764-1.176,2.846-0.916
		c0.618,0.147,1.142,0.486,1.521,0.936l1.68,0.008c0.396,0.002,0.715,0.365,0.713,0.812l-0.021,4.827
		c-0.002,0.446-0.324,0.807-0.722,0.805l-7.778-0.035c-0.397-0.002-0.716-0.365-0.714-0.811l0.021-4.828
		C106.877,22.42,107.201,22.059,107.596,22.062L107.596,22.062z M111.135,27.24c1.096,0.262,2.198-0.414,2.461-1.512
		c0.263-1.096-0.413-2.197-1.509-2.461c-1.096-0.262-2.198,0.414-2.46,1.509C109.363,25.874,110.039,26.977,111.135,27.24
		L111.135,27.24z M111.916,23.983c0.7,0.168,1.132,0.873,0.964,1.573c-0.168,0.702-0.872,1.133-1.573,0.965
		c-0.7-0.168-1.133-0.871-0.964-1.573C110.51,24.248,111.215,23.815,111.916,23.983L111.916,23.983z M111.916,23.983"/>
</g>
<path fill="#46B7BF" d="M116.823,19.248c0.044-0.314-1.308-0.974-2.132-1.249l2.554-1.747L116.823,19.248z"/>
<polygon fill="#3B3F40" points="133,90 108.582,90 133,4.417 "/>
<polyline fill="#3B3F40" points="133,0 132.914,0.52 0,18.083 0,0 "/>
<g>
	<g>
		<line fill="none" stroke="#E4E4E4" stroke-width="0.75" stroke-miterlimit="10" x1="109" y1="89.5" x2="109.273" y2="88.538"/>
		
			<line fill="none" stroke="#E4E4E4" stroke-width="0.75" stroke-miterlimit="10" stroke-dasharray="1.9559,1.9559" x1="109.807" y1="86.656" x2="131.96" y2="8.569"/>
		<line fill="none" stroke="#E4E4E4" stroke-width="0.75" stroke-miterlimit="10" x1="132.227" y1="7.628" x2="132.5" y2="6.666"/>
	</g>
</g>
<line fill="none" stroke="#E4E4E4" stroke-width="0.75" stroke-miterlimit="10" stroke-dasharray="2" x1="132.5" y1="0.5" x2="0.5" y2="17.666"/>
</svg>
