<?xml version="1.0" encoding="utf-8"?>
<!-- Generator: Adobe Illustrator 16.0.0, SVG Export Plug-In . SVG Version: 6.00 Build 0)  -->
<!DOCTYPE svg PUBLIC "-//W3C//DTD SVG 1.1//EN" "http://www.w3.org/Graphics/SVG/1.1/DTD/svg11.dtd">
<svg version="1.1" id="Layer_1" xmlns="http://www.w3.org/2000/svg" xmlns:xlink="http://www.w3.org/1999/xlink" x="0px" y="0px"
	 width="133px" height="89.5px" viewBox="0 0 133 89.5" enable-background="new 0 0 133 89.5" xml:space="preserve">
<rect x="0.5" y="0.5" fill="#F5F5F5" stroke="#E4E4E4" stroke-miterlimit="10" width="132" height="89"/>
<polygon fill="#3B3F40" points="0,0 24.417,0 0,85.583 "/>
<polyline fill="#3B3F40" points="0,90 0.086,89.48 133,71.917 133,90 "/>
<g>
	<g>
		<line fill="none" stroke="#E4E4E4" stroke-width="0.75" stroke-miterlimit="10" x1="24" y1="0.5" x2="23.727" y2="1.462"/>
		
			<line fill="none" stroke="#E4E4E4" stroke-width="0.75" stroke-miterlimit="10" stroke-dasharray="1.9559,1.9559" x1="23.193" y1="3.344" x2="1.04" y2="81.432"/>
		<line fill="none" stroke="#E4E4E4" stroke-width="0.75" stroke-miterlimit="10" x1="0.773" y1="82.372" x2="0.5" y2="83.334"/>
	</g>
</g>
<line fill="none" stroke="#E4E4E4" stroke-width="0.75" stroke-miterlimit="10" stroke-dasharray="2" x1="0.5" y1="89.5" x2="132.5" y2="72.334"/>
<g>
	<path fill="#3B3F40" d="M10.744,75.795c0.359,0,0.68,0.097,0.961,0.29s0.5,0.472,0.656,0.835h0.064l0.393-1.008h0.744l-1.365,6.422
		h-0.779l0.152-1.225h-0.047c-0.699,0.895-1.436,1.342-2.209,1.342c-0.543,0-0.969-0.193-1.277-0.58s-0.463-0.916-0.463-1.588
		c0-0.812,0.139-1.566,0.416-2.262s0.66-1.24,1.148-1.635S10.162,75.795,10.744,75.795z M9.63,81.637
		c0.379,0,0.756-0.181,1.131-0.542s0.68-0.832,0.914-1.412s0.352-1.161,0.352-1.743c0-0.402-0.109-0.723-0.328-0.961
		s-0.506-0.357-0.861-0.357c-0.406,0-0.784,0.168-1.134,0.504S9.08,77.916,8.88,78.49s-0.299,1.18-0.299,1.816
		c0,0.445,0.092,0.778,0.275,0.999S9.298,81.637,9.63,81.637z"/>
</g>
<ellipse fill="#FFFFFF" cx="23.214" cy="66.084" rx="6.119" ry="6.083"/>
<g>
	<path fill="#46B7BF" d="M24.681,73.995c4.357-1.021,7.062-5.381,6.041-9.738c-1.021-4.356-5.38-7.062-9.738-6.041
		c-4.357,1.021-7.062,5.382-6.041,9.738c0.376,1.605,1.206,2.986,2.322,4.039l-0.001,0.001l2.033,1.402
		C20.911,74.181,22.797,74.437,24.681,73.995L24.681,73.995z M26.718,63.03c0.396,0,0.716,0.363,0.717,0.809l-0.003,4.828
		c0,0.445-0.322,0.807-0.718,0.807l-7.779-0.004c-0.396-0.001-0.717-0.363-0.717-0.81l0.003-4.827c0-0.446,0.321-0.808,0.717-0.808
		l1.68,0.001c0.383-0.448,0.908-0.784,1.526-0.929c1.083-0.254,2.164,0.141,2.841,0.931L26.718,63.03L26.718,63.03z M23.153,68.191
		c1.098-0.258,1.778-1.356,1.521-2.456c-0.257-1.097-1.355-1.777-2.453-1.521s-1.779,1.355-1.522,2.452
		C20.957,67.766,22.055,68.448,23.153,68.191L23.153,68.191z M22.389,64.931c0.702-0.164,1.404,0.271,1.568,0.973
		c0.165,0.703-0.271,1.404-0.973,1.569c-0.702,0.164-1.403-0.271-1.568-0.974C21.252,65.798,21.687,65.095,22.389,64.931
		L22.389,64.931z M22.389,64.931"/>
</g>
<path fill="#46B7BF" d="M17.454,71.63c-0.044,0.314,1.308,0.974,2.132,1.249l-2.554,1.747L17.454,71.63z"/>
</svg>
