<?xml version="1.0" encoding="utf-8"?>
<!-- Generator: Adobe Illustrator 16.0.0, SVG Export Plug-In . SVG Version: 6.00 Build 0)  -->
<!DOCTYPE svg PUBLIC "-//W3C//DTD SVG 1.1//EN" "http://www.w3.org/Graphics/SVG/1.1/DTD/svg11.dtd">
<svg version="1.1" id="Layer_1" xmlns="http://www.w3.org/2000/svg" xmlns:xlink="http://www.w3.org/1999/xlink" x="0px" y="0px"
	 width="122.985px" height="141.492px" viewBox="0 0 122.985 141.492" enable-background="new 0 0 122.985 141.492"
	 xml:space="preserve">
<rect x="6.618" y="31.459" fill="#E1E3E3" width="15.831" height="15.831"/>
<rect x="30.364" y="31.459" fill="#E1E3E3" width="15.831" height="15.831"/>
<rect x="30.364" y="55.901" fill="#E1E3E3" width="15.831" height="15.833"/>
<rect x="6.618" y="56.135" fill="#E1E3E3" width="15.831" height="15.832"/>
<rect x="6.618" y="96.727" fill="#E1E3E3" width="15.831" height="15.831"/>
<rect x="30.364" y="96.727" fill="#E1E3E3" width="15.831" height="15.831"/>
<rect x="30.364" y="121.17" fill="#E1E3E3" width="15.831" height="15.831"/>
<rect x="6.618" y="121.403" fill="#E1E3E3" width="15.831" height="15.831"/>
<rect x="76.097" y="31.459" fill="#E1E3E3" width="15.832" height="15.831"/>
<rect x="99.843" y="31.459" fill="#E1E3E3" width="15.832" height="15.831"/>
<rect x="99.843" y="55.901" fill="#E1E3E3" width="15.832" height="15.833"/>
<rect x="76.097" y="56.135" fill="#E1E3E3" width="15.832" height="15.832"/>
<rect x="76.097" y="96.727" fill="#E1E3E3" width="15.832" height="15.831"/>
<rect x="99.843" y="96.727" fill="#E1E3E3" width="15.832" height="15.831"/>
<rect x="99.843" y="121.168" fill="#E1E3E3" width="15.832" height="15.832"/>
<rect x="76.097" y="121.402" fill="#E1E3E3" width="15.832" height="15.831"/>
<rect x="0.47" fill="#46B7BF" width="122.046" height="14.651"/>
<g>
	<path fill="#FFFFFF" d="M14.911,4.371v3.458c0,0.395-0.085,0.74-0.254,1.036c-0.169,0.296-0.414,0.524-0.734,0.683
		c-0.32,0.16-0.704,0.24-1.149,0.24c-0.663,0-1.179-0.176-1.546-0.526c-0.368-0.351-0.552-0.833-0.552-1.447V4.371h0.877v3.381
		c0,0.441,0.103,0.766,0.307,0.976c0.205,0.209,0.52,0.314,0.943,0.314c0.823,0,1.235-0.433,1.235-1.297V4.371H14.911z"/>
	<path fill="#FFFFFF" d="M16.465,4.371h1.587c0.735,0,1.268,0.107,1.595,0.322c0.328,0.214,0.491,0.553,0.491,1.016
		c0,0.312-0.08,0.572-0.241,0.779c-0.16,0.207-0.392,0.337-0.694,0.391v0.037c0.376,0.07,0.651,0.21,0.828,0.418
		c0.177,0.208,0.265,0.49,0.265,0.846c0,0.48-0.167,0.856-0.502,1.127c-0.335,0.272-0.801,0.408-1.398,0.408h-1.93V4.371z
		 M17.339,6.578h0.841c0.365,0,0.632-0.058,0.8-0.174s0.252-0.312,0.252-0.59c0-0.251-0.091-0.433-0.271-0.545
		c-0.182-0.112-0.47-0.168-0.865-0.168h-0.756V6.578z M17.339,7.287v1.692h0.928c0.366,0,0.642-0.07,0.828-0.21
		s0.279-0.361,0.279-0.663c0-0.278-0.095-0.484-0.285-0.618c-0.189-0.134-0.479-0.201-0.866-0.201H17.339z"/>
	<path fill="#FFFFFF" d="M21.594,9.714V4.371h0.874v5.343H21.594z"/>
	<path fill="#FFFFFF" d="M26.338,5.043c-0.502,0-0.896,0.178-1.184,0.534c-0.288,0.356-0.432,0.847-0.432,1.473
		c0,0.656,0.139,1.151,0.415,1.488c0.276,0.336,0.677,0.504,1.2,0.504c0.227,0,0.446-0.022,0.658-0.068
		c0.212-0.045,0.433-0.103,0.661-0.173v0.749c-0.419,0.159-0.895,0.238-1.425,0.238c-0.782,0-1.383-0.237-1.802-0.711
		c-0.42-0.474-0.629-1.152-0.629-2.034c0-0.555,0.102-1.042,0.305-1.458c0.204-0.417,0.498-0.736,0.883-0.958
		s0.837-0.333,1.356-0.333c0.545,0,1.05,0.114,1.513,0.343l-0.314,0.728c-0.181-0.085-0.371-0.16-0.572-0.225
		C26.771,5.075,26.56,5.043,26.338,5.043z"/>
	<path fill="#FFFFFF" d="M32.312,9.714L31.777,8.23h-2.043l-0.522,1.484h-0.921l1.999-5.365h0.95l1.999,5.365H32.312z M31.548,7.477
		l-0.501-1.455c-0.037-0.097-0.087-0.251-0.151-0.46c-0.065-0.209-0.109-0.363-0.134-0.46c-0.065,0.3-0.162,0.627-0.289,0.983
		L29.99,7.477H31.548z"/>
	<path fill="#FFFFFF" d="M36.405,5.043c-0.502,0-0.896,0.178-1.184,0.534c-0.288,0.356-0.432,0.847-0.432,1.473
		c0,0.656,0.139,1.151,0.415,1.488c0.276,0.336,0.677,0.504,1.2,0.504c0.227,0,0.446-0.022,0.658-0.068
		c0.212-0.045,0.433-0.103,0.661-0.173v0.749C37.306,9.708,36.83,9.787,36.3,9.787c-0.782,0-1.383-0.237-1.802-0.711
		c-0.42-0.474-0.629-1.152-0.629-2.034c0-0.555,0.102-1.042,0.305-1.458c0.204-0.417,0.498-0.736,0.883-0.958
		s0.837-0.333,1.356-0.333c0.545,0,1.05,0.114,1.513,0.343l-0.314,0.728c-0.181-0.085-0.371-0.16-0.572-0.225
		C36.839,5.075,36.627,5.043,36.405,5.043z"/>
	<path fill="#FFFFFF" d="M39.062,9.714V4.371h0.874v5.343H39.062z"/>
	<path fill="#FFFFFF" d="M46.278,7.035c0,0.87-0.218,1.546-0.652,2.028s-1.051,0.724-1.848,0.724c-0.807,0-1.426-0.24-1.858-0.718
		c-0.433-0.479-0.648-1.159-0.648-2.041c0-0.882,0.218-1.56,0.652-2.032s1.056-0.709,1.862-0.709c0.794,0,1.408,0.24,1.842,0.72
		S46.278,6.163,46.278,7.035z M42.199,7.035c0,0.658,0.133,1.157,0.398,1.497s0.659,0.51,1.181,0.51c0.52,0,0.911-0.168,1.175-0.504
		C45.218,8.201,45.35,7.7,45.35,7.035c0-0.656-0.131-1.153-0.393-1.491c-0.262-0.339-0.652-0.508-1.171-0.508
		c-0.524,0-0.92,0.169-1.187,0.508C42.333,5.882,42.199,6.379,42.199,7.035z M43.23,3.943V3.852c0.139-0.17,0.282-0.36,0.43-0.57
		c0.146-0.209,0.264-0.388,0.349-0.537h0.998v0.077C44.88,2.97,44.69,3.162,44.438,3.396c-0.253,0.235-0.465,0.417-0.638,0.546
		H43.23z"/>
	<path fill="#FFFFFF" d="M52.064,9.714h-1.071l-2.628-4.258h-0.029l0.019,0.238c0.034,0.453,0.051,0.867,0.051,1.242v2.778h-0.793
		V4.371h1.061l2.62,4.236h0.021C51.31,8.55,51.3,8.346,51.285,7.994c-0.014-0.352-0.021-0.626-0.021-0.824V4.371h0.801V9.714z"/>
	<path fill="#FFFFFF" d="M60.139,6.991c0,0.882-0.245,1.556-0.734,2.023c-0.49,0.466-1.195,0.7-2.116,0.7h-1.495V4.371h1.652
		c0.851,0,1.512,0.229,1.984,0.687S60.139,6.16,60.139,6.991z M59.218,7.021c0-1.279-0.599-1.919-1.795-1.919h-0.756v3.878h0.621
		C58.574,8.979,59.218,8.326,59.218,7.021z"/>
	<path fill="#FFFFFF" d="M64.496,9.714h-3.022V4.371h3.022v0.738h-2.148v1.455h2.014v0.731h-2.014v1.678h2.148V9.714z"/>
	<path fill="#FFFFFF" d="M65.838,9.714V4.371h0.874v4.594h2.262v0.749H65.838z"/>
	<path fill="#FFFFFF" d="M75.751,5.986c0,0.558-0.183,0.986-0.548,1.283c-0.366,0.297-0.886,0.446-1.561,0.446h-0.556v1.999h-0.874
		V4.371h1.539c0.667,0,1.168,0.137,1.5,0.409C75.585,5.053,75.751,5.455,75.751,5.986z M73.087,6.98h0.464
		c0.448,0,0.777-0.078,0.987-0.234c0.209-0.156,0.313-0.399,0.313-0.731c0-0.307-0.094-0.536-0.281-0.687
		c-0.188-0.151-0.479-0.227-0.877-0.227h-0.606V6.98z"/>
	<path fill="#FFFFFF" d="M77.005,9.714V4.371h0.874v5.343H77.005z"/>
	<path fill="#FFFFFF" d="M82.836,9.714h-3.823V9.107l2.693-3.987h-2.62V4.371h3.677v0.614l-2.705,3.98h2.778V9.714z"/>
	<path fill="#FFFFFF" d="M87.284,9.714L86.75,8.23h-2.043l-0.522,1.484h-0.921l1.999-5.365h0.95l1.999,5.365H87.284z M86.521,7.477
		L86.02,6.022c-0.037-0.097-0.087-0.251-0.151-0.46c-0.065-0.209-0.109-0.363-0.134-0.46c-0.065,0.3-0.162,0.627-0.289,0.983
		l-0.482,1.393H86.521z"/>
	<path fill="#FFFFFF" d="M89.979,7.58v2.134h-0.874V4.371h1.51c0.689,0,1.2,0.129,1.531,0.387c0.331,0.258,0.497,0.648,0.497,1.17
		c0,0.665-0.346,1.139-1.038,1.421l1.51,2.365H92.12L90.841,7.58H89.979z M89.979,6.856h0.606c0.407,0,0.702-0.076,0.885-0.227
		c0.183-0.151,0.273-0.375,0.273-0.673c0-0.302-0.099-0.519-0.296-0.65c-0.197-0.131-0.494-0.197-0.892-0.197h-0.577V6.856z"/>
	<path fill="#FFFFFF" d="M94.95,7.58v2.134h-0.874V4.371h1.51c0.689,0,1.2,0.129,1.531,0.387c0.331,0.258,0.497,0.648,0.497,1.17
		c0,0.665-0.346,1.139-1.038,1.421l1.51,2.365h-0.994L95.812,7.58H94.95z M94.95,6.856h0.606c0.407,0,0.702-0.076,0.885-0.227
		c0.183-0.151,0.273-0.375,0.273-0.673c0-0.302-0.099-0.519-0.296-0.65c-0.197-0.131-0.494-0.197-0.892-0.197H94.95V6.856z"/>
	<path fill="#FFFFFF" d="M103.791,7.035c0,0.87-0.218,1.546-0.652,2.028s-1.051,0.724-1.848,0.724c-0.807,0-1.426-0.24-1.858-0.718
		C99,8.59,98.784,7.91,98.784,7.028c0-0.882,0.218-1.56,0.652-2.032s1.056-0.709,1.862-0.709c0.794,0,1.408,0.24,1.842,0.72
		S103.791,6.163,103.791,7.035z M99.712,7.035c0,0.658,0.133,1.157,0.398,1.497s0.659,0.51,1.181,0.51
		c0.52,0,0.911-0.168,1.175-0.504c0.265-0.336,0.396-0.837,0.396-1.502c0-0.656-0.131-1.153-0.393-1.491
		c-0.262-0.339-0.652-0.508-1.171-0.508c-0.524,0-0.92,0.169-1.187,0.508C99.846,5.882,99.712,6.379,99.712,7.035z M100.743,3.943
		V3.852c0.139-0.17,0.282-0.36,0.43-0.57c0.146-0.209,0.264-0.388,0.349-0.537h0.998v0.077c-0.127,0.149-0.316,0.341-0.568,0.576
		c-0.253,0.235-0.465,0.417-0.638,0.546H100.743z"/>
	<path fill="#FFFFFF" d="M109.578,9.714h-1.071l-2.628-4.258h-0.029l0.019,0.238c0.034,0.453,0.051,0.867,0.051,1.242v2.778h-0.793
		V4.371h1.061l2.62,4.236h0.021c-0.005-0.056-0.015-0.26-0.029-0.612c-0.014-0.352-0.021-0.626-0.021-0.824V4.371h0.801V9.714z"/>
</g>
</svg>
