<?xml version="1.0" encoding="utf-8"?>
<!-- Generator: Adobe Illustrator 16.0.0, SVG Export Plug-In . SVG Version: 6.00 Build 0)  -->
<!DOCTYPE svg PUBLIC "-//W3C//DTD SVG 1.1//EN" "http://www.w3.org/Graphics/SVG/1.1/DTD/svg11.dtd">
<svg version="1.1" id="Layer_1" xmlns="http://www.w3.org/2000/svg" xmlns:xlink="http://www.w3.org/1999/xlink" x="0px" y="0px"
	 width="122.985px" height="141.492px" viewBox="0 0 122.985 141.492" enable-background="new 0 0 122.985 141.492"
	 xml:space="preserve">
<rect x="-0.093" fill="#46B7BF" width="123.079" height="14.774"/>
<g>
	<path fill="#FFFFFF" d="M26.183,4.211v3.486c0,0.398-0.089,0.747-0.267,1.047s-0.436,0.529-0.772,0.689
		c-0.337,0.16-0.735,0.24-1.194,0.24c-0.693,0-1.231-0.178-1.614-0.533S21.76,8.299,21.76,7.683V4.211h1.139v3.298
		c0,0.416,0.083,0.72,0.25,0.914c0.167,0.194,0.443,0.291,0.829,0.291c0.374,0,0.645-0.098,0.813-0.293
		c0.168-0.195,0.252-0.501,0.252-0.919V4.211H26.183z"/>
	<path fill="#FFFFFF" d="M29.638,5.401c0.486,0,0.867,0.189,1.143,0.569c0.275,0.379,0.413,0.9,0.413,1.561
		c0,0.681-0.142,1.208-0.426,1.582s-0.67,0.56-1.159,0.56c-0.484,0-0.864-0.176-1.139-0.527h-0.078l-0.188,0.453h-0.858V3.864h1.124
		v1.334c0,0.17-0.015,0.441-0.044,0.815h0.044C28.732,5.605,29.122,5.401,29.638,5.401z M29.277,6.3
		c-0.278,0-0.48,0.085-0.608,0.256c-0.128,0.171-0.194,0.453-0.199,0.846v0.122c0,0.442,0.065,0.759,0.197,0.951
		c0.131,0.191,0.339,0.288,0.625,0.288c0.231,0,0.415-0.106,0.551-0.319c0.136-0.213,0.205-0.521,0.205-0.927
		c0-0.405-0.069-0.709-0.207-0.912S29.515,6.3,29.277,6.3z"/>
	<path fill="#FFFFFF" d="M31.999,4.414c0-0.366,0.204-0.549,0.612-0.549c0.408,0,0.612,0.183,0.612,0.549
		c0,0.174-0.051,0.31-0.153,0.407s-0.255,0.146-0.458,0.146C32.203,4.966,31.999,4.782,31.999,4.414z M33.171,9.599h-1.124V5.479
		h1.124V9.599z"/>
	<path fill="#FFFFFF" d="M35.948,9.673c-1.283,0-1.924-0.704-1.924-2.112c0-0.7,0.175-1.235,0.523-1.605
		c0.349-0.37,0.849-0.555,1.5-0.555c0.477,0,0.904,0.093,1.283,0.28l-0.332,0.87c-0.177-0.071-0.342-0.13-0.494-0.175
		S36.2,6.308,36.047,6.308c-0.584,0-0.877,0.416-0.877,1.246c0,0.806,0.292,1.209,0.877,1.209c0.216,0,0.417-0.029,0.601-0.087
		c0.184-0.058,0.369-0.148,0.553-0.271v0.962c-0.182,0.116-0.366,0.196-0.551,0.24C36.465,9.651,36.23,9.673,35.948,9.673z"/>
	<path fill="#FFFFFF" d="M40.637,9.599l-0.217-0.56h-0.03c-0.189,0.238-0.384,0.403-0.584,0.496s-0.461,0.138-0.783,0.138
		c-0.396,0-0.707-0.113-0.935-0.339c-0.227-0.226-0.341-0.548-0.341-0.966c0-0.438,0.153-0.76,0.459-0.967
		c0.306-0.208,0.767-0.323,1.384-0.345l0.715-0.022v-0.18c0-0.418-0.214-0.627-0.642-0.627c-0.329,0-0.716,0.1-1.161,0.299
		L38.13,5.766c0.474-0.248,1-0.372,1.578-0.372c0.553,0,0.977,0.12,1.271,0.361s0.442,0.607,0.442,1.099v2.746H40.637z M40.305,7.69
		L39.87,7.705c-0.327,0.01-0.57,0.069-0.73,0.177c-0.16,0.108-0.239,0.272-0.239,0.494c0,0.317,0.182,0.476,0.545,0.476
		c0.26,0,0.469-0.075,0.625-0.225c0.156-0.15,0.234-0.349,0.234-0.597V7.69z"/>
	<path fill="#FFFFFF" d="M44.185,9.673c-1.283,0-1.924-0.704-1.924-2.112c0-0.7,0.175-1.235,0.523-1.605
		c0.349-0.37,0.849-0.555,1.5-0.555c0.477,0,0.904,0.093,1.283,0.28l-0.332,0.87c-0.177-0.071-0.342-0.13-0.494-0.175
		s-0.305-0.068-0.457-0.068c-0.584,0-0.877,0.416-0.877,1.246c0,0.806,0.292,1.209,0.877,1.209c0.216,0,0.417-0.029,0.601-0.087
		c0.184-0.058,0.369-0.148,0.553-0.271v0.962c-0.182,0.116-0.366,0.196-0.551,0.24C44.701,9.651,44.467,9.673,44.185,9.673z"/>
	<path fill="#FFFFFF" d="M46.276,4.414c0-0.366,0.204-0.549,0.612-0.549c0.408,0,0.612,0.183,0.612,0.549
		c0,0.174-0.051,0.31-0.153,0.407s-0.255,0.146-0.458,0.146C46.48,4.966,46.276,4.782,46.276,4.414z M47.448,9.599h-1.124V5.479
		h1.124V9.599z"/>
	<path fill="#FFFFFF" d="M52.297,7.531c0,0.671-0.177,1.196-0.531,1.574c-0.354,0.378-0.847,0.567-1.478,0.567
		c-0.396,0-0.745-0.086-1.047-0.26s-0.534-0.422-0.696-0.747c-0.163-0.324-0.244-0.703-0.244-1.135c0-0.673,0.176-1.196,0.527-1.57
		c0.351-0.374,0.845-0.56,1.481-0.56c0.396,0,0.745,0.086,1.047,0.258s0.534,0.419,0.696,0.741
		C52.216,6.722,52.297,7.099,52.297,7.531z M49.448,7.531c0,0.408,0.067,0.716,0.201,0.925C49.783,8.666,50,8.77,50.303,8.77
		c0.3,0,0.516-0.104,0.647-0.312s0.197-0.517,0.197-0.927c0-0.408-0.066-0.713-0.199-0.917s-0.35-0.306-0.652-0.306
		c-0.3,0-0.516,0.102-0.648,0.304C49.514,6.814,49.448,7.121,49.448,7.531z M49.684,5.025v-0.1c0.422-0.491,0.711-0.861,0.866-1.109
		h1.26v0.077c-0.127,0.128-0.346,0.318-0.654,0.57c-0.309,0.251-0.55,0.439-0.725,0.562H49.684z"/>
	<path fill="#FFFFFF" d="M56.954,9.599H55.83V7.192c0-0.297-0.053-0.52-0.158-0.669C55.565,6.375,55.397,6.3,55.167,6.3
		c-0.315,0-0.542,0.105-0.682,0.315c-0.14,0.21-0.21,0.558-0.21,1.045v1.938H53.15V5.479h0.858l0.151,0.527h0.062
		c0.125-0.199,0.298-0.35,0.518-0.452c0.22-0.102,0.47-0.153,0.75-0.153c0.479,0,0.843,0.129,1.091,0.389s0.372,0.633,0.372,1.122
		V9.599z"/>
	<path fill="#FFFFFF" d="M61.226,9.673c-0.484,0-0.864-0.188-1.141-0.564c-0.277-0.376-0.415-0.897-0.415-1.562
		c0-0.676,0.141-1.202,0.422-1.58c0.281-0.377,0.669-0.565,1.163-0.565c0.519,0,0.914,0.201,1.187,0.604h0.037
		c-0.057-0.307-0.084-0.582-0.084-0.822V3.864h1.127v5.735h-0.862l-0.217-0.534h-0.048C62.138,9.47,61.749,9.673,61.226,9.673z
		 M61.62,8.777c0.288,0,0.499-0.083,0.632-0.251c0.134-0.167,0.207-0.451,0.219-0.851V7.554c0-0.442-0.068-0.759-0.205-0.951
		c-0.136-0.191-0.358-0.287-0.665-0.287c-0.251,0-0.445,0.106-0.584,0.318c-0.139,0.213-0.208,0.522-0.208,0.927
		s0.07,0.709,0.21,0.912S61.359,8.777,61.62,8.777z"/>
	<path fill="#FFFFFF" d="M66.487,9.673c-0.664,0-1.182-0.183-1.555-0.549c-0.374-0.366-0.561-0.884-0.561-1.555
		c0-0.69,0.173-1.224,0.518-1.602c0.345-0.377,0.822-0.565,1.432-0.565c0.583,0,1.036,0.166,1.36,0.498
		c0.324,0.332,0.486,0.79,0.486,1.375v0.545H65.51c0.012,0.319,0.107,0.569,0.284,0.749c0.177,0.179,0.425,0.269,0.745,0.269
		c0.248,0,0.483-0.026,0.704-0.078c0.221-0.052,0.452-0.134,0.693-0.247v0.87c-0.197,0.098-0.407,0.171-0.63,0.219
		S66.809,9.673,66.487,9.673z M66.329,6.201c-0.239,0-0.425,0.075-0.561,0.227c-0.135,0.151-0.212,0.365-0.232,0.643h1.577
		c-0.005-0.278-0.077-0.492-0.217-0.643C66.756,6.276,66.567,6.201,66.329,6.201z"/>
	<path fill="#FFFFFF" d="M70.138,9.599h-1.124V3.864h1.124V9.599z"/>
	<path fill="#FFFFFF" d="M76.938,5.892c0,0.58-0.182,1.023-0.544,1.33c-0.362,0.308-0.878,0.461-1.546,0.461h-0.49v1.917h-1.143
		V4.211h1.721c0.653,0,1.15,0.141,1.491,0.422S76.938,5.333,76.938,5.892z M74.358,6.747h0.376c0.351,0,0.614-0.069,0.789-0.208
		c0.174-0.139,0.262-0.341,0.262-0.606c0-0.268-0.073-0.466-0.219-0.594c-0.146-0.127-0.375-0.191-0.688-0.191h-0.52V6.747z"/>
	<path fill="#FFFFFF" d="M77.751,4.414c0-0.366,0.204-0.549,0.612-0.549c0.408,0,0.612,0.183,0.612,0.549
		c0,0.174-0.051,0.31-0.153,0.407s-0.255,0.146-0.458,0.146C77.955,4.966,77.751,4.782,77.751,4.414z M78.923,9.599h-1.124V5.479
		h1.124V9.599z"/>
	<path fill="#FFFFFF" d="M82.894,9.599H79.64V8.936l1.909-2.598h-1.795V5.479h3.074v0.73L80.97,8.74h1.924V9.599z"/>
	<path fill="#FFFFFF" d="M86.129,9.599l-0.217-0.56h-0.03c-0.189,0.238-0.384,0.403-0.584,0.496s-0.461,0.138-0.783,0.138
		c-0.396,0-0.707-0.113-0.935-0.339c-0.227-0.226-0.341-0.548-0.341-0.966c0-0.438,0.153-0.76,0.459-0.967
		c0.306-0.208,0.767-0.323,1.384-0.345l0.715-0.022v-0.18c0-0.418-0.214-0.627-0.642-0.627c-0.329,0-0.716,0.1-1.161,0.299
		l-0.373-0.759c0.474-0.248,1-0.372,1.578-0.372c0.553,0,0.977,0.12,1.271,0.361s0.442,0.607,0.442,1.099v2.746H86.129z
		 M85.798,7.69l-0.435,0.015c-0.327,0.01-0.57,0.069-0.73,0.177c-0.16,0.108-0.239,0.272-0.239,0.494
		c0,0.317,0.182,0.476,0.545,0.476c0.26,0,0.469-0.075,0.625-0.225c0.156-0.15,0.234-0.349,0.234-0.597V7.69z"/>
	<path fill="#FFFFFF" d="M90.296,5.401c0.152,0,0.279,0.011,0.379,0.033l-0.084,1.054c-0.091-0.024-0.202-0.037-0.332-0.037
		c-0.358,0-0.638,0.092-0.838,0.276s-0.3,0.442-0.3,0.774v2.097h-1.124V5.479h0.851l0.166,0.693h0.055
		c0.128-0.231,0.3-0.417,0.518-0.558C89.804,5.472,90.04,5.401,90.296,5.401z"/>
	<path fill="#FFFFFF" d="M93.656,5.401c0.152,0,0.279,0.011,0.379,0.033l-0.084,1.054c-0.091-0.024-0.202-0.037-0.332-0.037
		c-0.358,0-0.638,0.092-0.838,0.276s-0.3,0.442-0.3,0.774v2.097h-1.124V5.479h0.851l0.166,0.693h0.055
		c0.128-0.231,0.3-0.417,0.518-0.558C93.164,5.472,93.4,5.401,93.656,5.401z"/>
	<path fill="#FFFFFF" d="M98.332,7.531c0,0.671-0.177,1.196-0.531,1.574c-0.354,0.378-0.847,0.567-1.478,0.567
		c-0.396,0-0.745-0.086-1.047-0.26s-0.534-0.422-0.696-0.747c-0.163-0.324-0.244-0.703-0.244-1.135c0-0.673,0.176-1.196,0.527-1.57
		c0.351-0.374,0.845-0.56,1.481-0.56c0.396,0,0.745,0.086,1.047,0.258s0.534,0.419,0.696,0.741
		C98.251,6.722,98.332,7.099,98.332,7.531z M95.483,7.531c0,0.408,0.067,0.716,0.201,0.925c0.134,0.209,0.352,0.313,0.654,0.313
		c0.3,0,0.516-0.104,0.647-0.312s0.197-0.517,0.197-0.927c0-0.408-0.066-0.713-0.199-0.917s-0.35-0.306-0.652-0.306
		c-0.3,0-0.516,0.102-0.648,0.304C95.549,6.814,95.483,7.121,95.483,7.531z M95.719,5.025v-0.1c0.422-0.491,0.711-0.861,0.866-1.109
		h1.26v0.077c-0.127,0.128-0.346,0.318-0.654,0.57c-0.309,0.251-0.55,0.439-0.725,0.562H95.719z"/>
	<path fill="#FFFFFF" d="M102.988,9.599h-1.124V7.192c0-0.297-0.053-0.52-0.158-0.669C101.6,6.375,101.432,6.3,101.201,6.3
		c-0.315,0-0.542,0.105-0.682,0.315c-0.14,0.21-0.21,0.558-0.21,1.045v1.938h-1.124V5.479h0.858l0.151,0.527h0.062
		c0.125-0.199,0.298-0.35,0.518-0.452c0.22-0.102,0.47-0.153,0.75-0.153c0.479,0,0.843,0.129,1.091,0.389s0.372,0.633,0.372,1.122
		V9.599z"/>
</g>
<rect x="2.555" y="27.187" fill="#E1E3E3" width="20.043" height="20.043"/>
<rect x="32.619" y="27.187" fill="#E1E3E3" width="20.043" height="20.043"/>
<rect x="68.428" y="27.187" fill="#E1E3E3" width="20.041" height="20.043"/>
<rect x="98.825" y="27.187" fill="#E1E3E3" width="20.042" height="20.043"/>
<rect x="32.619" y="56.954" fill="#E1E3E3" width="20.043" height="20.043"/>
<rect x="68.428" y="56.954" fill="#E1E3E3" width="20.041" height="20.043"/>
<rect x="98.825" y="56.954" fill="#E1E3E3" width="20.042" height="20.043"/>
<rect x="32.784" y="91.185" fill="#E1E3E3" width="20.044" height="20.043"/>
<rect x="68.428" y="91.482" fill="#E1E3E3" width="20.041" height="20.044"/>
<rect x="98.825" y="91.482" fill="#E1E3E3" width="20.042" height="20.044"/>
<rect x="32.784" y="121.153" fill="#E1E3E3" width="20.044" height="20.042"/>
<rect x="68.428" y="121.45" fill="#E1E3E3" width="20.041" height="20.042"/>
<rect x="98.825" y="121.45" fill="#E1E3E3" width="20.042" height="20.042"/>
<rect x="2.555" y="57.25" fill="#E1E3E3" width="20.043" height="20.044"/>
<rect x="2.721" y="91.482" fill="#E1E3E3" width="20.043" height="20.044"/>
<rect x="2.721" y="121.448" fill="#E1E3E3" width="20.043" height="20.044"/>
</svg>
