<?xml version="1.0" encoding="utf-8"?>
<!-- Generator: Adobe Illustrator 16.0.0, SVG Export Plug-In . SVG Version: 6.00 Build 0)  -->
<!DOCTYPE svg PUBLIC "-//W3C//DTD SVG 1.1//EN" "http://www.w3.org/Graphics/SVG/1.1/DTD/svg11.dtd">
<svg version="1.1" id="Layer_1" xmlns="http://www.w3.org/2000/svg" xmlns:xlink="http://www.w3.org/1999/xlink" x="0px" y="0px"
	 width="122.985px" height="141.492px" viewBox="0 0 122.985 141.492" enable-background="new 0 0 122.985 141.492"
	 xml:space="preserve">
<rect x="2.324" y="27.632" fill="#E1E3E3" width="15.576" height="15.577"/>
<rect x="2.324" y="76.528" fill="#E1E3E3" width="15.576" height="15.575"/>
<rect x="2.324" y="52.21" fill="#E1E3E3" width="15.576" height="15.577"/>
<rect x="2.323" y="100.629" fill="#E1E3E3" width="15.578" height="15.578"/>
<rect x="28.376" y="27.632" fill="#E1E3E3" width="15.576" height="15.577"/>
<rect x="28.376" y="76.528" fill="#E1E3E3" width="15.576" height="15.575"/>
<rect x="28.376" y="52.21" fill="#E1E3E3" width="15.576" height="15.577"/>
<rect x="28.375" y="100.629" fill="#E1E3E3" width="15.579" height="15.578"/>
<rect x="54.108" y="27.632" fill="#E1E3E3" width="15.576" height="15.577"/>
<rect x="54.108" y="76.528" fill="#E1E3E3" width="15.576" height="15.575"/>
<rect x="54.108" y="52.21" fill="#E1E3E3" width="15.576" height="15.577"/>
<rect x="54.106" y="100.629" fill="#E1E3E3" width="15.579" height="15.578"/>
<rect x="79.462" y="27.632" fill="#E1E3E3" width="15.575" height="15.577"/>
<rect x="79.462" y="76.528" fill="#E1E3E3" width="15.575" height="15.575"/>
<rect x="79.462" y="52.21" fill="#E1E3E3" width="15.575" height="15.577"/>
<rect x="79.46" y="100.629" fill="#E1E3E3" width="15.579" height="15.578"/>
<rect x="104.583" y="27.632" fill="#E1E3E3" width="15.575" height="15.577"/>
<rect x="104.583" y="76.528" fill="#E1E3E3" width="15.575" height="15.575"/>
<rect x="104.583" y="52.21" fill="#E1E3E3" width="15.575" height="15.577"/>
<rect x="104.582" y="100.629" fill="#E1E3E3" width="15.579" height="15.578"/>
<rect x="2.323" y="125.526" fill="#E1E3E3" width="15.578" height="15.578"/>
<rect x="28.375" y="125.526" fill="#E1E3E3" width="15.579" height="15.578"/>
<rect x="54.106" y="125.526" fill="#E1E3E3" width="15.579" height="15.578"/>
<rect x="79.46" y="125.526" fill="#E1E3E3" width="15.579" height="15.578"/>
<rect x="104.582" y="125.526" fill="#E1E3E3" width="15.579" height="15.578"/>
<rect x="0.463" fill="#46B7BF" width="122.045" height="14.651"/>
<g>
	<path fill="#FFFFFF" d="M14.903,4.371v3.458c0,0.395-0.084,0.74-0.254,1.036c-0.169,0.296-0.414,0.524-0.734,0.683
		c-0.321,0.16-0.704,0.24-1.149,0.24c-0.663,0-1.178-0.176-1.546-0.526c-0.368-0.351-0.552-0.833-0.552-1.447V4.371h0.877v3.381
		c0,0.441,0.102,0.766,0.307,0.976c0.205,0.209,0.519,0.314,0.943,0.314c0.823,0,1.235-0.433,1.235-1.297V4.371H14.903z"/>
	<path fill="#FFFFFF" d="M16.457,4.371h1.586c0.736,0,1.268,0.107,1.595,0.322s0.492,0.553,0.492,1.016
		c0,0.312-0.081,0.572-0.241,0.779s-0.392,0.337-0.694,0.391v0.037c0.375,0.07,0.651,0.21,0.828,0.418
		c0.177,0.208,0.265,0.49,0.265,0.846c0,0.48-0.167,0.856-0.502,1.127c-0.335,0.272-0.801,0.408-1.398,0.408h-1.93V4.371z
		 M17.33,6.578h0.841c0.366,0,0.632-0.058,0.8-0.174c0.168-0.116,0.252-0.312,0.252-0.59c0-0.251-0.091-0.433-0.272-0.545
		c-0.182-0.112-0.47-0.168-0.864-0.168H17.33V6.578z M17.33,7.287v1.692h0.929c0.365,0,0.641-0.07,0.828-0.21s0.28-0.361,0.28-0.663
		c0-0.278-0.095-0.484-0.285-0.618c-0.19-0.134-0.479-0.201-0.866-0.201H17.33z"/>
	<path fill="#FFFFFF" d="M21.585,9.714V4.371h0.873v5.343H21.585z"/>
	<path fill="#FFFFFF" d="M26.33,5.043c-0.502,0-0.896,0.178-1.184,0.534c-0.288,0.356-0.431,0.847-0.431,1.473
		c0,0.656,0.138,1.151,0.415,1.488c0.277,0.336,0.677,0.504,1.201,0.504c0.227,0,0.446-0.022,0.658-0.068
		C27.2,8.929,27.42,8.871,27.649,8.8v0.749c-0.419,0.159-0.894,0.238-1.425,0.238c-0.782,0-1.383-0.237-1.802-0.711
		c-0.419-0.474-0.628-1.152-0.628-2.034c0-0.555,0.102-1.042,0.305-1.458c0.203-0.417,0.498-0.736,0.882-0.958
		c0.385-0.222,0.837-0.333,1.356-0.333c0.546,0,1.05,0.114,1.513,0.343l-0.314,0.728c-0.18-0.085-0.371-0.16-0.572-0.225
		C26.763,5.075,26.552,5.043,26.33,5.043z"/>
	<path fill="#FFFFFF" d="M32.302,9.714L31.769,8.23h-2.043l-0.523,1.484h-0.921l1.999-5.365h0.95l2,5.365H32.302z M31.539,7.477
		l-0.5-1.455c-0.037-0.097-0.087-0.251-0.152-0.46s-0.109-0.363-0.133-0.46c-0.066,0.3-0.162,0.627-0.289,0.983l-0.482,1.393H31.539
		z"/>
	<path fill="#FFFFFF" d="M36.396,5.043c-0.502,0-0.896,0.178-1.184,0.534c-0.288,0.356-0.431,0.847-0.431,1.473
		c0,0.656,0.138,1.151,0.415,1.488c0.277,0.336,0.677,0.504,1.201,0.504c0.227,0,0.446-0.022,0.658-0.068
		c0.212-0.045,0.432-0.103,0.661-0.173v0.749c-0.419,0.159-0.894,0.238-1.425,0.238c-0.782,0-1.383-0.237-1.802-0.711
		C34.07,8.602,33.86,7.924,33.86,7.042c0-0.555,0.102-1.042,0.305-1.458c0.203-0.417,0.498-0.736,0.882-0.958
		c0.385-0.222,0.837-0.333,1.356-0.333c0.546,0,1.05,0.114,1.513,0.343l-0.314,0.728c-0.18-0.085-0.371-0.16-0.572-0.225
		C36.83,5.075,36.618,5.043,36.396,5.043z"/>
	<path fill="#FFFFFF" d="M39.055,9.714V4.371h0.873v5.343H39.055z"/>
	<path fill="#FFFFFF" d="M46.27,7.035c0,0.87-0.217,1.546-0.652,2.028s-1.051,0.724-1.848,0.724c-0.806,0-1.426-0.24-1.858-0.718
		c-0.433-0.479-0.648-1.159-0.648-2.041c0-0.882,0.217-1.56,0.652-2.032c0.435-0.473,1.056-0.709,1.862-0.709
		c0.794,0,1.408,0.24,1.842,0.72C46.053,5.486,46.27,6.163,46.27,7.035z M42.191,7.035c0,0.658,0.133,1.157,0.398,1.497
		s0.659,0.51,1.18,0.51c0.519,0,0.911-0.168,1.175-0.504c0.264-0.336,0.396-0.837,0.396-1.502c0-0.656-0.131-1.153-0.393-1.491
		c-0.262-0.339-0.652-0.508-1.171-0.508c-0.524,0-0.919,0.169-1.186,0.508C42.324,5.882,42.191,6.379,42.191,7.035z M43.222,3.943
		V3.852c0.139-0.17,0.282-0.36,0.429-0.57C43.798,3.072,43.915,2.893,44,2.744h0.998v0.077c-0.126,0.149-0.316,0.341-0.568,0.576
		c-0.252,0.235-0.464,0.417-0.638,0.546H43.222z"/>
	<path fill="#FFFFFF" d="M52.056,9.714h-1.071l-2.628-4.258h-0.029l0.018,0.238c0.034,0.453,0.051,0.867,0.051,1.242v2.778h-0.793
		V4.371h1.06l2.621,4.236h0.022c-0.005-0.056-0.015-0.26-0.029-0.612s-0.022-0.626-0.022-0.824V4.371h0.8V9.714z"/>
	<path fill="#FFFFFF" d="M60.13,6.991c0,0.882-0.245,1.556-0.734,2.023c-0.49,0.466-1.195,0.7-2.116,0.7h-1.495V4.371h1.652
		c0.85,0,1.512,0.229,1.984,0.687S60.13,6.16,60.13,6.991z M59.209,7.021c0-1.279-0.598-1.919-1.794-1.919h-0.757v3.878h0.622
		C58.566,8.979,59.209,8.326,59.209,7.021z"/>
	<path fill="#FFFFFF" d="M64.488,9.714h-3.022V4.371h3.022v0.738h-2.149v1.455h2.014v0.731h-2.014v1.678h2.149V9.714z"/>
	<path fill="#FFFFFF" d="M65.83,9.714V4.371h0.873v4.594h2.263v0.749H65.83z"/>
	<path fill="#FFFFFF" d="M75.743,5.986c0,0.558-0.183,0.986-0.548,1.283c-0.365,0.297-0.886,0.446-1.561,0.446h-0.556v1.999h-0.873
		V4.371h1.539c0.667,0,1.167,0.137,1.5,0.409C75.577,5.053,75.743,5.455,75.743,5.986z M73.079,6.98h0.464
		c0.448,0,0.777-0.078,0.987-0.234c0.209-0.156,0.314-0.399,0.314-0.731c0-0.307-0.094-0.536-0.282-0.687
		c-0.188-0.151-0.48-0.227-0.877-0.227h-0.607V6.98z"/>
	<path fill="#FFFFFF" d="M76.998,9.714V4.371h0.873v5.343H76.998z"/>
	<path fill="#FFFFFF" d="M82.827,9.714h-3.823V9.107l2.693-3.987h-2.62V4.371h3.677v0.614l-2.705,3.98h2.777V9.714z"/>
	<path fill="#FFFFFF" d="M87.276,9.714L86.743,8.23H84.7l-0.523,1.484h-0.921l1.999-5.365h0.95l2,5.365H87.276z M86.512,7.477
		l-0.5-1.455c-0.037-0.097-0.087-0.251-0.152-0.46s-0.109-0.363-0.133-0.46c-0.066,0.3-0.162,0.627-0.289,0.983l-0.482,1.393H86.512
		z"/>
	<path fill="#FFFFFF" d="M89.97,7.58v2.134h-0.873V4.371h1.509c0.689,0,1.2,0.129,1.531,0.387c0.332,0.258,0.497,0.648,0.497,1.17
		c0,0.665-0.346,1.139-1.038,1.421l1.51,2.365h-0.994L90.833,7.58H89.97z M89.97,6.856h0.607c0.407,0,0.702-0.076,0.884-0.227
		c0.183-0.151,0.274-0.375,0.274-0.673c0-0.302-0.099-0.519-0.296-0.65c-0.197-0.131-0.495-0.197-0.892-0.197H89.97V6.856z"/>
	<path fill="#FFFFFF" d="M94.941,7.58v2.134h-0.873V4.371h1.509c0.689,0,1.2,0.129,1.531,0.387c0.332,0.258,0.497,0.648,0.497,1.17
		c0,0.665-0.346,1.139-1.038,1.421l1.51,2.365h-0.994L95.804,7.58H94.941z M94.941,6.856h0.607c0.407,0,0.702-0.076,0.884-0.227
		c0.183-0.151,0.274-0.375,0.274-0.673c0-0.302-0.099-0.519-0.296-0.65c-0.197-0.131-0.495-0.197-0.892-0.197h-0.578V6.856z"/>
	<path fill="#FFFFFF" d="M103.783,7.035c0,0.87-0.217,1.546-0.652,2.028s-1.051,0.724-1.848,0.724c-0.806,0-1.426-0.24-1.858-0.718
		c-0.433-0.479-0.648-1.159-0.648-2.041c0-0.882,0.217-1.56,0.652-2.032c0.435-0.473,1.056-0.709,1.862-0.709
		c0.794,0,1.408,0.24,1.842,0.72C103.566,5.486,103.783,6.163,103.783,7.035z M99.705,7.035c0,0.658,0.133,1.157,0.398,1.497
		s0.659,0.51,1.18,0.51c0.519,0,0.911-0.168,1.175-0.504c0.264-0.336,0.396-0.837,0.396-1.502c0-0.656-0.131-1.153-0.393-1.491
		c-0.262-0.339-0.652-0.508-1.171-0.508c-0.524,0-0.919,0.169-1.186,0.508C99.838,5.882,99.705,6.379,99.705,7.035z M100.735,3.943
		V3.852c0.139-0.17,0.282-0.36,0.429-0.57c0.147-0.209,0.264-0.388,0.349-0.537h0.998v0.077c-0.126,0.149-0.316,0.341-0.568,0.576
		c-0.252,0.235-0.464,0.417-0.638,0.546H100.735z"/>
	<path fill="#FFFFFF" d="M109.569,9.714h-1.071l-2.628-4.258h-0.029l0.018,0.238c0.034,0.453,0.051,0.867,0.051,1.242v2.778h-0.793
		V4.371h1.06l2.621,4.236h0.022c-0.005-0.056-0.015-0.26-0.029-0.612s-0.022-0.626-0.022-0.824V4.371h0.8V9.714z"/>
</g>
</svg>
