<?xml version="1.0" encoding="utf-8"?>
<!-- Generator: Adobe Illustrator 16.0.0, SVG Export Plug-In . SVG Version: 6.00 Build 0)  -->
<!DOCTYPE svg PUBLIC "-//W3C//DTD SVG 1.1//EN" "http://www.w3.org/Graphics/SVG/1.1/DTD/svg11.dtd">
<svg version="1.1" id="Layer_1" xmlns="http://www.w3.org/2000/svg" xmlns:xlink="http://www.w3.org/1999/xlink" x="0px" y="0px"
	 width="122.985px" height="141.492px" viewBox="0 0 122.985 141.492" enable-background="new 0 0 122.985 141.492"
	 xml:space="preserve">
<rect x="2.399" y="27.746" fill="#E1E3E3" width="15.697" height="15.697"/>
<rect x="2.399" y="77.018" fill="#E1E3E3" width="15.697" height="15.696"/>
<rect x="2.399" y="52.514" fill="#E1E3E3" width="15.697" height="15.697"/>
<rect x="2.398" y="101.306" fill="#E1E3E3" width="15.699" height="15.697"/>
<rect x="28.652" y="27.746" fill="#E1E3E3" width="15.695" height="15.697"/>
<rect x="28.652" y="77.018" fill="#E1E3E3" width="15.695" height="15.696"/>
<rect x="28.652" y="52.514" fill="#E1E3E3" width="15.695" height="15.697"/>
<rect x="28.651" y="101.306" fill="#E1E3E3" width="15.698" height="15.697"/>
<rect x="54.582" y="27.746" fill="#E1E3E3" width="15.695" height="15.697"/>
<rect x="54.582" y="77.018" fill="#E1E3E3" width="15.695" height="15.696"/>
<rect x="54.582" y="52.514" fill="#E1E3E3" width="15.695" height="15.697"/>
<rect x="54.581" y="101.306" fill="#E1E3E3" width="15.698" height="15.697"/>
<rect x="80.131" y="27.746" fill="#E1E3E3" width="15.696" height="15.697"/>
<rect x="80.131" y="77.018" fill="#E1E3E3" width="15.696" height="15.696"/>
<rect x="80.131" y="52.514" fill="#E1E3E3" width="15.696" height="15.697"/>
<rect x="80.129" y="101.306" fill="#E1E3E3" width="15.7" height="15.697"/>
<rect x="105.446" y="27.746" fill="#E1E3E3" width="15.695" height="15.697"/>
<rect x="105.446" y="77.018" fill="#E1E3E3" width="15.695" height="15.696"/>
<rect x="105.446" y="52.514" fill="#E1E3E3" width="15.695" height="15.697"/>
<rect x="105.444" y="101.306" fill="#E1E3E3" width="15.699" height="15.697"/>
<rect x="2.398" y="125.795" fill="#E1E3E3" width="15.699" height="15.697"/>
<rect x="28.651" y="125.795" fill="#E1E3E3" width="15.698" height="15.697"/>
<rect x="54.581" y="125.795" fill="#E1E3E3" width="15.698" height="15.697"/>
<rect x="80.129" y="125.795" fill="#E1E3E3" width="15.7" height="15.697"/>
<rect x="105.444" y="125.795" fill="#E1E3E3" width="15.699" height="15.697"/>
<rect fill="#46B7BF" width="122.985" height="14.763"/>
<g>
	<path fill="#FFFFFF" d="M25.319,4.208v3.484c0,0.398-0.089,0.747-0.268,1.046c-0.178,0.3-0.435,0.529-0.771,0.689
		c-0.336,0.16-0.734,0.239-1.193,0.239c-0.692,0-1.229-0.177-1.612-0.532c-0.384-0.355-0.575-0.84-0.575-1.457V4.208h1.139v3.296
		c0,0.415,0.083,0.72,0.25,0.914s0.443,0.291,0.829,0.291c0.373,0,0.644-0.098,0.812-0.293s0.252-0.501,0.252-0.919V4.208H25.319z"
		/>
	<path fill="#FFFFFF" d="M28.771,5.397c0.486,0,0.867,0.189,1.142,0.569c0.275,0.379,0.413,0.899,0.413,1.56
		c0,0.68-0.143,1.207-0.426,1.58c-0.283,0.374-0.67,0.56-1.158,0.56c-0.483,0-0.863-0.176-1.138-0.527h-0.078l-0.188,0.453H26.48
		v-5.73h1.124v1.333c0,0.169-0.015,0.441-0.045,0.814h0.045C27.867,5.601,28.256,5.397,28.771,5.397z M28.411,6.296
		c-0.278,0-0.48,0.085-0.608,0.256c-0.127,0.17-0.193,0.452-0.198,0.845v0.122c0,0.442,0.065,0.758,0.196,0.95
		c0.132,0.191,0.34,0.287,0.625,0.287c0.23,0,0.414-0.106,0.55-0.319c0.137-0.212,0.205-0.521,0.205-0.926
		c0-0.405-0.069-0.709-0.206-0.911C28.837,6.397,28.648,6.296,28.411,6.296z"/>
	<path fill="#FFFFFF" d="M31.131,4.411c0-0.366,0.204-0.549,0.611-0.549c0.408,0,0.611,0.183,0.611,0.549
		c0,0.174-0.051,0.31-0.152,0.407s-0.255,0.146-0.459,0.146C31.335,4.963,31.131,4.779,31.131,4.411z M32.303,9.592h-1.124V5.475
		h1.124V9.592z"/>
	<path fill="#FFFFFF" d="M35.078,9.666c-1.282,0-1.923-0.704-1.923-2.11c0-0.7,0.174-1.234,0.522-1.604s0.849-0.554,1.499-0.554
		c0.477,0,0.904,0.093,1.282,0.28l-0.332,0.869c-0.177-0.071-0.341-0.129-0.493-0.175s-0.305-0.068-0.457-0.068
		c-0.584,0-0.876,0.415-0.876,1.245c0,0.805,0.292,1.208,0.876,1.208c0.217,0,0.417-0.029,0.601-0.086
		c0.185-0.058,0.368-0.148,0.553-0.271V9.36c-0.182,0.115-0.365,0.195-0.551,0.239C35.594,9.644,35.36,9.666,35.078,9.666z"/>
	<path fill="#FFFFFF" d="M39.763,9.592l-0.217-0.56h-0.03c-0.188,0.238-0.384,0.403-0.583,0.495c-0.2,0.092-0.461,0.138-0.783,0.138
		c-0.396,0-0.706-0.113-0.934-0.339c-0.227-0.226-0.341-0.547-0.341-0.965c0-0.437,0.153-0.759,0.459-0.967s0.767-0.322,1.383-0.344
		l0.715-0.022v-0.18c0-0.417-0.214-0.626-0.642-0.626c-0.329,0-0.716,0.099-1.16,0.298l-0.371-0.758
		c0.474-0.248,0.999-0.372,1.576-0.372c0.552,0,0.976,0.12,1.271,0.361c0.294,0.241,0.441,0.606,0.441,1.098v2.744H39.763z
		 M39.432,7.685l-0.435,0.015c-0.327,0.01-0.57,0.069-0.729,0.177c-0.16,0.108-0.239,0.272-0.239,0.494
		c0,0.317,0.182,0.475,0.545,0.475c0.26,0,0.468-0.075,0.624-0.225s0.234-0.349,0.234-0.597V7.685z"/>
	<path fill="#FFFFFF" d="M43.308,9.666c-1.282,0-1.923-0.704-1.923-2.11c0-0.7,0.174-1.234,0.522-1.604s0.849-0.554,1.499-0.554
		c0.477,0,0.904,0.093,1.282,0.28l-0.332,0.869c-0.177-0.071-0.341-0.129-0.493-0.175s-0.305-0.068-0.457-0.068
		c-0.584,0-0.876,0.415-0.876,1.245c0,0.805,0.292,1.208,0.876,1.208c0.217,0,0.417-0.029,0.601-0.086
		c0.185-0.058,0.368-0.148,0.553-0.271V9.36c-0.182,0.115-0.365,0.195-0.551,0.239C43.823,9.644,43.59,9.666,43.308,9.666z"/>
	<path fill="#FFFFFF" d="M45.397,4.411c0-0.366,0.204-0.549,0.611-0.549c0.408,0,0.611,0.183,0.611,0.549
		c0,0.174-0.051,0.31-0.152,0.407s-0.255,0.146-0.459,0.146C45.602,4.963,45.397,4.779,45.397,4.411z M46.569,9.592h-1.124V5.475
		h1.124V9.592z"/>
	<path fill="#FFFFFF" d="M51.414,7.526c0,0.67-0.177,1.194-0.53,1.572c-0.354,0.378-0.846,0.567-1.477,0.567
		c-0.396,0-0.744-0.086-1.046-0.26c-0.303-0.173-0.534-0.422-0.696-0.746c-0.162-0.324-0.243-0.702-0.243-1.134
		c0-0.673,0.176-1.196,0.526-1.569c0.352-0.373,0.845-0.56,1.48-0.56c0.396,0,0.744,0.086,1.046,0.258
		c0.303,0.172,0.534,0.418,0.696,0.74S51.414,7.094,51.414,7.526z M48.567,7.526c0,0.407,0.066,0.715,0.2,0.924
		c0.134,0.208,0.353,0.313,0.654,0.313c0.299,0,0.515-0.104,0.646-0.311c0.131-0.208,0.196-0.517,0.196-0.926
		c0-0.408-0.065-0.713-0.198-0.917c-0.133-0.204-0.351-0.306-0.652-0.306c-0.3,0-0.516,0.102-0.648,0.304
		C48.634,6.81,48.567,7.116,48.567,7.526z M48.803,5.022v-0.1c0.423-0.491,0.711-0.86,0.865-1.108h1.26v0.077
		C50.8,4.019,50.582,4.208,50.274,4.46c-0.309,0.252-0.55,0.439-0.724,0.562H48.803z"/>
	<path fill="#FFFFFF" d="M56.066,9.592h-1.123V7.188c0-0.297-0.053-0.52-0.158-0.668s-0.273-0.223-0.505-0.223
		c-0.314,0-0.541,0.105-0.681,0.315c-0.141,0.21-0.21,0.558-0.21,1.044v1.937h-1.124V5.475h0.858l0.151,0.527h0.062
		c0.125-0.199,0.298-0.349,0.518-0.451s0.47-0.153,0.749-0.153c0.479,0,0.843,0.129,1.09,0.389c0.248,0.259,0.372,0.633,0.372,1.121
		V9.592z"/>
	<path fill="#FFFFFF" d="M60.335,9.666c-0.483,0-0.863-0.188-1.14-0.563c-0.276-0.376-0.414-0.896-0.414-1.562
		c0-0.675,0.141-1.201,0.422-1.578s0.668-0.565,1.162-0.565c0.518,0,0.913,0.201,1.186,0.604h0.037
		c-0.057-0.307-0.085-0.581-0.085-0.821V3.862h1.127v5.73h-0.862l-0.217-0.534h-0.048C61.247,9.463,60.858,9.666,60.335,9.666z
		 M60.729,8.771c0.287,0,0.498-0.083,0.632-0.25S61.568,8.07,61.58,7.67V7.548c0-0.442-0.068-0.759-0.204-0.95
		c-0.137-0.191-0.358-0.287-0.665-0.287c-0.25,0-0.445,0.106-0.584,0.318s-0.208,0.521-0.208,0.926s0.07,0.709,0.21,0.912
		C60.27,8.67,60.469,8.771,60.729,8.771z"/>
	<path fill="#FFFFFF" d="M65.594,9.666c-0.663,0-1.182-0.183-1.555-0.549s-0.56-0.884-0.56-1.554c0-0.69,0.173-1.223,0.518-1.6
		s0.821-0.565,1.431-0.565c0.582,0,1.035,0.166,1.359,0.497c0.323,0.332,0.485,0.79,0.485,1.374v0.545h-2.655
		c0.013,0.319,0.107,0.568,0.284,0.748s0.425,0.269,0.743,0.269c0.248,0,0.483-0.026,0.704-0.078
		c0.221-0.051,0.451-0.134,0.692-0.247v0.869c-0.196,0.098-0.406,0.171-0.63,0.219S65.915,9.666,65.594,9.666z M65.436,6.197
		c-0.238,0-0.425,0.075-0.561,0.227c-0.135,0.151-0.212,0.365-0.231,0.643h1.576c-0.005-0.277-0.077-0.492-0.218-0.643
		C65.862,6.272,65.673,6.197,65.436,6.197z"/>
	<path fill="#FFFFFF" d="M69.242,9.592h-1.124v-5.73h1.124V9.592z"/>
	<path fill="#FFFFFF" d="M76.036,5.887c0,0.58-0.182,1.023-0.543,1.33c-0.362,0.307-0.878,0.46-1.545,0.46h-0.49v1.915h-1.142V4.208
		h1.72c0.653,0,1.149,0.141,1.49,0.421C75.866,4.911,76.036,5.33,76.036,5.887z M73.458,6.742h0.376
		c0.351,0,0.613-0.069,0.788-0.208c0.174-0.139,0.262-0.341,0.262-0.606c0-0.268-0.073-0.465-0.22-0.593
		c-0.146-0.128-0.375-0.191-0.687-0.191h-0.52V6.742z"/>
	<path fill="#FFFFFF" d="M76.849,4.411c0-0.366,0.204-0.549,0.611-0.549c0.408,0,0.611,0.183,0.611,0.549
		c0,0.174-0.051,0.31-0.152,0.407s-0.255,0.146-0.459,0.146C77.053,4.963,76.849,4.779,76.849,4.411z M78.021,9.592h-1.124V5.475
		h1.124V9.592z"/>
	<path fill="#FFFFFF" d="M81.988,9.592h-3.252V8.929l1.908-2.596h-1.794V5.475h3.072v0.729l-1.856,2.53h1.922V9.592z"/>
	<path fill="#FFFFFF" d="M85.221,9.592l-0.217-0.56h-0.03c-0.188,0.238-0.384,0.403-0.583,0.495c-0.2,0.092-0.461,0.138-0.783,0.138
		c-0.396,0-0.706-0.113-0.934-0.339c-0.227-0.226-0.341-0.547-0.341-0.965c0-0.437,0.153-0.759,0.459-0.967s0.767-0.322,1.383-0.344
		l0.715-0.022v-0.18c0-0.417-0.214-0.626-0.642-0.626c-0.329,0-0.716,0.099-1.16,0.298l-0.371-0.758
		c0.474-0.248,0.999-0.372,1.576-0.372c0.552,0,0.976,0.12,1.271,0.361c0.294,0.241,0.441,0.606,0.441,1.098v2.744H85.221z
		 M84.89,7.685l-0.435,0.015c-0.327,0.01-0.57,0.069-0.729,0.177c-0.16,0.108-0.239,0.272-0.239,0.494
		c0,0.317,0.182,0.475,0.545,0.475c0.26,0,0.468-0.075,0.624-0.225s0.234-0.349,0.234-0.597V7.685z"/>
	<path fill="#FFFFFF" d="M89.385,5.397c0.152,0,0.278,0.011,0.379,0.033l-0.085,1.053c-0.091-0.024-0.201-0.037-0.331-0.037
		c-0.358,0-0.638,0.092-0.838,0.276s-0.3,0.442-0.3,0.773v2.096h-1.124V5.475h0.852l0.165,0.692h0.056
		c0.128-0.23,0.3-0.417,0.518-0.558C88.893,5.468,89.129,5.397,89.385,5.397z"/>
	<path fill="#FFFFFF" d="M92.742,5.397c0.152,0,0.278,0.011,0.379,0.033l-0.085,1.053c-0.091-0.024-0.201-0.037-0.331-0.037
		c-0.358,0-0.638,0.092-0.838,0.276s-0.3,0.442-0.3,0.773v2.096h-1.124V5.475h0.852l0.165,0.692h0.056
		c0.128-0.23,0.3-0.417,0.518-0.558C92.25,5.468,92.486,5.397,92.742,5.397z"/>
	<path fill="#FFFFFF" d="M97.414,7.526c0,0.67-0.177,1.194-0.53,1.572c-0.354,0.378-0.846,0.567-1.477,0.567
		c-0.396,0-0.744-0.086-1.046-0.26c-0.303-0.173-0.534-0.422-0.696-0.746c-0.162-0.324-0.243-0.702-0.243-1.134
		c0-0.673,0.176-1.196,0.526-1.569c0.352-0.373,0.845-0.56,1.48-0.56c0.396,0,0.744,0.086,1.046,0.258
		c0.303,0.172,0.534,0.418,0.696,0.74S97.414,7.094,97.414,7.526z M94.567,7.526c0,0.407,0.066,0.715,0.2,0.924
		c0.134,0.208,0.353,0.313,0.654,0.313c0.299,0,0.515-0.104,0.646-0.311c0.131-0.208,0.196-0.517,0.196-0.926
		c0-0.408-0.065-0.713-0.198-0.917c-0.133-0.204-0.351-0.306-0.652-0.306c-0.3,0-0.516,0.102-0.648,0.304
		C94.634,6.81,94.567,7.116,94.567,7.526z M94.803,5.022v-0.1c0.423-0.491,0.711-0.86,0.865-1.108h1.26v0.077
		C96.8,4.019,96.582,4.208,96.274,4.46c-0.309,0.252-0.55,0.439-0.724,0.562H94.803z"/>
	<path fill="#FFFFFF" d="M102.067,9.592h-1.123V7.188c0-0.297-0.053-0.52-0.158-0.668s-0.273-0.223-0.505-0.223
		c-0.314,0-0.541,0.105-0.681,0.315c-0.141,0.21-0.21,0.558-0.21,1.044v1.937h-1.124V5.475h0.858l0.151,0.527h0.062
		c0.125-0.199,0.298-0.349,0.518-0.451s0.47-0.153,0.749-0.153c0.479,0,0.843,0.129,1.09,0.389c0.248,0.259,0.372,0.633,0.372,1.121
		V9.592z"/>
</g>
</svg>
