<?xml version="1.0" encoding="utf-8"?>
<!-- Generator: Adobe Illustrator 16.0.0, SVG Export Plug-In . SVG Version: 6.00 Build 0)  -->
<!DOCTYPE svg PUBLIC "-//W3C//DTD SVG 1.1//EN" "http://www.w3.org/Graphics/SVG/1.1/DTD/svg11.dtd">
<svg version="1.1" id="Layer_1" xmlns="http://www.w3.org/2000/svg" xmlns:xlink="http://www.w3.org/1999/xlink" x="0px" y="0px"
	 width="253px" height="213px" viewBox="0 0 253 213" enable-background="new 0 0 253 213" xml:space="preserve">
<rect x="1.057" y="-0.357" fill="#46B7BF" width="250.751" height="23.488"/>
<g>
	<path fill="#FFFFFF" d="M78.138,6.335v5.543c0,0.977-0.295,1.744-0.885,2.303s-1.4,0.838-2.432,0.838s-1.829-0.281-2.394-0.844
		s-0.847-1.336-0.847-2.32v-5.52h0.996v5.59c0,0.715,0.195,1.264,0.586,1.646s0.965,0.574,1.723,0.574
		c0.723,0,1.279-0.192,1.67-0.577s0.586-0.937,0.586-1.655V6.335H78.138z"/>
	<path fill="#FFFFFF" d="M83.14,8.374c0.844,0,1.499,0.288,1.966,0.864s0.7,1.392,0.7,2.446s-0.235,1.874-0.706,2.458
		s-1.124,0.876-1.96,0.876c-0.418,0-0.8-0.077-1.146-0.231s-0.636-0.392-0.87-0.712h-0.07l-0.205,0.826h-0.697V5.784h0.973v2.215
		c0,0.496-0.016,0.941-0.047,1.336h0.047C81.577,8.694,82.249,8.374,83.14,8.374z M82.999,9.188c-0.664,0-1.143,0.19-1.436,0.571
		s-0.439,1.022-0.439,1.925s0.15,1.548,0.451,1.937s0.783,0.583,1.447,0.583c0.598,0,1.043-0.218,1.336-0.653
		s0.439-1.062,0.439-1.878c0-0.836-0.146-1.459-0.439-1.869S83.612,9.188,82.999,9.188z"/>
	<path fill="#FFFFFF" d="M87.303,6.739c0-0.223,0.055-0.386,0.164-0.489s0.246-0.155,0.41-0.155c0.156,0,0.291,0.053,0.404,0.158
		s0.17,0.268,0.17,0.486s-0.057,0.382-0.17,0.489S88.033,7.39,87.877,7.39c-0.164,0-0.301-0.054-0.41-0.161
		S87.303,6.958,87.303,6.739z M88.357,14.901h-0.973V8.479h0.973V14.901z"/>
	<path fill="#FFFFFF" d="M92.866,15.019c-0.93,0-1.649-0.286-2.159-0.858s-0.765-1.382-0.765-2.429c0-1.074,0.259-1.904,0.776-2.49
		s1.255-0.879,2.212-0.879c0.309,0,0.617,0.033,0.926,0.1s0.551,0.145,0.727,0.234l-0.299,0.826
		c-0.215-0.086-0.449-0.157-0.703-0.214s-0.479-0.085-0.674-0.085c-1.305,0-1.957,0.832-1.957,2.496
		c0,0.789,0.159,1.395,0.478,1.816s0.79,0.633,1.415,0.633c0.535,0,1.084-0.115,1.646-0.346v0.861
		C94.06,14.907,93.519,15.019,92.866,15.019z"/>
	<path fill="#FFFFFF" d="M99.745,14.901l-0.193-0.914h-0.047c-0.32,0.402-0.64,0.675-0.958,0.817s-0.716,0.214-1.192,0.214
		c-0.637,0-1.136-0.164-1.497-0.492s-0.542-0.795-0.542-1.4c0-1.297,1.037-1.977,3.111-2.039l1.09-0.035v-0.398
		c0-0.504-0.108-0.876-0.325-1.116s-0.563-0.36-1.04-0.36c-0.535,0-1.141,0.164-1.816,0.492l-0.299-0.744
		c0.316-0.172,0.663-0.307,1.04-0.404s0.755-0.146,1.134-0.146c0.766,0,1.333,0.17,1.702,0.51s0.554,0.885,0.554,1.635v4.383H99.745
		z M97.548,14.216c0.605,0,1.081-0.166,1.427-0.498s0.519-0.797,0.519-1.395v-0.58l-0.973,0.041
		c-0.773,0.027-1.331,0.147-1.673,0.36s-0.513,0.544-0.513,0.993c0,0.352,0.106,0.619,0.319,0.803S97.165,14.216,97.548,14.216z"/>
	<path fill="#FFFFFF" d="M104.929,15.019c-0.93,0-1.649-0.286-2.159-0.858s-0.765-1.382-0.765-2.429c0-1.074,0.259-1.904,0.776-2.49
		s1.255-0.879,2.212-0.879c0.309,0,0.617,0.033,0.926,0.1s0.551,0.145,0.727,0.234l-0.299,0.826
		c-0.215-0.086-0.449-0.157-0.703-0.214s-0.479-0.085-0.674-0.085c-1.305,0-1.957,0.832-1.957,2.496
		c0,0.789,0.159,1.395,0.478,1.816s0.79,0.633,1.415,0.633c0.535,0,1.084-0.115,1.646-0.346v0.861
		C106.122,14.907,105.581,15.019,104.929,15.019z"/>
	<path fill="#FFFFFF" d="M107.885,6.739c0-0.223,0.055-0.386,0.164-0.489s0.246-0.155,0.41-0.155c0.156,0,0.291,0.053,0.404,0.158
		s0.17,0.268,0.17,0.486s-0.057,0.382-0.17,0.489s-0.248,0.161-0.404,0.161c-0.164,0-0.301-0.054-0.41-0.161
		S107.885,6.958,107.885,6.739z M108.939,14.901h-0.973V8.479h0.973V14.901z"/>
	<path fill="#FFFFFF" d="M116.425,11.685c0,1.047-0.264,1.864-0.791,2.452s-1.256,0.882-2.186,0.882
		c-0.574,0-1.084-0.135-1.529-0.404s-0.789-0.656-1.031-1.16s-0.363-1.094-0.363-1.77c0-1.047,0.262-1.862,0.785-2.446
		s1.25-0.876,2.18-0.876c0.898,0,1.612,0.299,2.142,0.896S116.425,10.665,116.425,11.685z M111.532,11.685
		c0,0.82,0.164,1.445,0.492,1.875s0.811,0.645,1.447,0.645s1.12-0.214,1.45-0.642s0.495-1.054,0.495-1.878
		c0-0.816-0.165-1.437-0.495-1.86s-0.817-0.636-1.462-0.636c-0.637,0-1.117,0.209-1.441,0.627S111.532,10.856,111.532,11.685z
		 M112.657,7.483c0.188-0.242,0.39-0.535,0.606-0.879s0.388-0.643,0.513-0.896h1.184v0.123c-0.172,0.254-0.428,0.566-0.768,0.938
		s-0.635,0.658-0.885,0.861h-0.65V7.483z"/>
	<path fill="#FFFFFF" d="M122.404,14.901v-4.154c0-0.523-0.119-0.914-0.357-1.172s-0.611-0.387-1.119-0.387
		c-0.672,0-1.164,0.182-1.477,0.545s-0.469,0.963-0.469,1.799v3.369h-0.973V8.479h0.791l0.158,0.879h0.047
		c0.199-0.316,0.479-0.562,0.838-0.735s0.76-0.261,1.201-0.261c0.773,0,1.355,0.187,1.746,0.56s0.586,0.97,0.586,1.79v4.189H122.404
		z"/>
	<path fill="#FFFFFF" d="M132.623,14.04h-0.053c-0.449,0.652-1.121,0.979-2.016,0.979c-0.84,0-1.493-0.287-1.96-0.861
		s-0.7-1.391-0.7-2.449s0.234-1.881,0.703-2.467s1.121-0.879,1.957-0.879c0.871,0,1.539,0.316,2.004,0.949h0.076l-0.041-0.463
		l-0.023-0.451V5.784h0.973v9.117h-0.791L132.623,14.04z M130.678,14.204c0.664,0,1.146-0.181,1.444-0.542s0.448-0.944,0.448-1.749
		v-0.205c0-0.91-0.151-1.56-0.454-1.948s-0.786-0.583-1.45-0.583c-0.57,0-1.007,0.222-1.31,0.665s-0.454,1.069-0.454,1.878
		c0,0.82,0.15,1.439,0.451,1.857S130.096,14.204,130.678,14.204z"/>
	<path fill="#FFFFFF" d="M138.198,15.019c-0.949,0-1.698-0.289-2.247-0.867s-0.823-1.381-0.823-2.408
		c0-1.035,0.255-1.857,0.765-2.467s1.194-0.914,2.054-0.914c0.805,0,1.441,0.265,1.91,0.794s0.703,1.228,0.703,2.095v0.615h-4.424
		c0.02,0.754,0.21,1.326,0.571,1.717s0.87,0.586,1.526,0.586c0.691,0,1.375-0.145,2.051-0.434v0.867
		c-0.344,0.148-0.669,0.255-0.976,0.319S138.632,15.019,138.198,15.019z M137.935,9.177c-0.516,0-0.927,0.168-1.233,0.504
		s-0.487,0.801-0.542,1.395h3.357c0-0.613-0.137-1.083-0.41-1.409S138.442,9.177,137.935,9.177z"/>
	<path fill="#FFFFFF" d="M143.083,14.901h-0.973V5.784h0.973V14.901z"/>
	<path fill="#FFFFFF" d="M153.601,8.831c0,0.867-0.296,1.534-0.888,2.001s-1.438,0.7-2.54,0.7h-1.008v3.369h-0.996V6.335h2.221
		C152.53,6.335,153.601,7.167,153.601,8.831z M149.165,10.677h0.896c0.883,0,1.521-0.143,1.916-0.428s0.592-0.742,0.592-1.371
		c0-0.566-0.186-0.988-0.557-1.266s-0.949-0.416-1.734-0.416h-1.113V10.677z"/>
	<path fill="#FFFFFF" d="M155.057,6.739c0-0.223,0.055-0.386,0.164-0.489s0.246-0.155,0.41-0.155c0.156,0,0.291,0.053,0.404,0.158
		s0.17,0.268,0.17,0.486s-0.057,0.382-0.17,0.489s-0.248,0.161-0.404,0.161c-0.164,0-0.301-0.054-0.41-0.161
		S155.057,6.958,155.057,6.739z M156.111,14.901h-0.973V8.479h0.973V14.901z"/>
	<path fill="#FFFFFF" d="M162.161,14.901h-4.658v-0.662l3.504-5.004h-3.287V8.479h4.354v0.756l-3.457,4.91h3.545V14.901z"/>
	<path fill="#FFFFFF" d="M167.305,14.901l-0.193-0.914h-0.047c-0.32,0.402-0.64,0.675-0.958,0.817s-0.716,0.214-1.192,0.214
		c-0.637,0-1.136-0.164-1.497-0.492s-0.542-0.795-0.542-1.4c0-1.297,1.037-1.977,3.111-2.039l1.09-0.035v-0.398
		c0-0.504-0.108-0.876-0.325-1.116s-0.563-0.36-1.04-0.36c-0.535,0-1.141,0.164-1.816,0.492l-0.299-0.744
		c0.316-0.172,0.663-0.307,1.04-0.404s0.755-0.146,1.134-0.146c0.766,0,1.333,0.17,1.702,0.51s0.554,0.885,0.554,1.635v4.383
		H167.305z M165.107,14.216c0.605,0,1.081-0.166,1.427-0.498s0.519-0.797,0.519-1.395v-0.58l-0.973,0.041
		c-0.773,0.027-1.331,0.147-1.673,0.36s-0.513,0.544-0.513,0.993c0,0.352,0.106,0.619,0.319,0.803S164.725,14.216,165.107,14.216z"
		/>
	<path fill="#FFFFFF" d="M172.839,8.362c0.285,0,0.541,0.023,0.768,0.07l-0.135,0.902c-0.266-0.059-0.5-0.088-0.703-0.088
		c-0.52,0-0.964,0.211-1.333,0.633s-0.554,0.947-0.554,1.576v3.445h-0.973V8.479h0.803l0.111,1.189h0.047
		c0.238-0.418,0.525-0.74,0.861-0.967S172.437,8.362,172.839,8.362z"/>
	<path fill="#FFFFFF" d="M177.629,8.362c0.285,0,0.541,0.023,0.768,0.07l-0.135,0.902c-0.266-0.059-0.5-0.088-0.703-0.088
		c-0.52,0-0.964,0.211-1.333,0.633s-0.554,0.947-0.554,1.576v3.445h-0.973V8.479h0.803l0.111,1.189h0.047
		c0.238-0.418,0.525-0.74,0.861-0.967S177.227,8.362,177.629,8.362z"/>
	<path fill="#FFFFFF" d="M184.828,11.685c0,1.047-0.264,1.864-0.791,2.452s-1.256,0.882-2.186,0.882
		c-0.574,0-1.084-0.135-1.529-0.404s-0.789-0.656-1.031-1.16s-0.363-1.094-0.363-1.77c0-1.047,0.262-1.862,0.785-2.446
		s1.25-0.876,2.18-0.876c0.898,0,1.612,0.299,2.142,0.896S184.828,10.665,184.828,11.685z M179.936,11.685
		c0,0.82,0.164,1.445,0.492,1.875s0.811,0.645,1.447,0.645s1.12-0.214,1.45-0.642s0.495-1.054,0.495-1.878
		c0-0.816-0.165-1.437-0.495-1.86s-0.817-0.636-1.462-0.636c-0.637,0-1.117,0.209-1.441,0.627S179.936,10.856,179.936,11.685z
		 M181.061,7.483c0.188-0.242,0.39-0.535,0.606-0.879s0.388-0.643,0.513-0.896h1.184v0.123c-0.172,0.254-0.428,0.566-0.768,0.938
		s-0.635,0.658-0.885,0.861h-0.65V7.483z"/>
	<path fill="#FFFFFF" d="M190.809,14.901v-4.154c0-0.523-0.119-0.914-0.357-1.172s-0.611-0.387-1.119-0.387
		c-0.672,0-1.164,0.182-1.477,0.545s-0.469,0.963-0.469,1.799v3.369h-0.973V8.479h0.791l0.158,0.879h0.047
		c0.199-0.316,0.479-0.562,0.838-0.735s0.76-0.261,1.201-0.261c0.773,0,1.355,0.187,1.746,0.56s0.586,0.97,0.586,1.79v4.189H190.809
		z"/>
</g>
<rect x="115.196" y="189.526" fill="#E1E3E3" width="22.477" height="22.474"/>
<rect x="1" y="48.356" fill="#E1E3E3" width="22.477" height="22.478"/>
<rect x="2.512" y="87.511" transform="matrix(-0.1391 -0.9903 0.9903 -0.1391 -82.1259 126.1056)" fill="#E1E3E3" width="22.476" height="22.477"/>
<rect x="70.651" y="182.75" transform="matrix(0.3746 -0.9272 0.9272 0.3746 -128.65 197.2361)" fill="#E1E3E3" width="22.477" height="22.477"/>
<rect x="35.129" y="161.112" transform="matrix(0.7431 -0.6691 0.6691 0.7431 -103.4158 75.297)" fill="#E1E3E3" width="22.48" height="22.478"/>
<rect x="13.428" y="126.657" transform="matrix(0.8988 -0.4384 0.4384 0.8988 -57.9564 24.7712)" fill="#E1E3E3" width="22.476" height="22.477"/>
<rect x="229.333" y="48.356" fill="#E1E3E3" width="22.475" height="22.478"/>
<rect x="227.821" y="87.512" transform="matrix(0.1392 -0.9903 0.9903 0.1392 107.9924 321.7342)" fill="#E1E3E3" width="22.476" height="22.475"/>
<rect x="159.683" y="182.749" transform="matrix(-0.3746 -0.9272 0.9272 -0.3746 55.0776 425.1284)" fill="#E1E3E3" width="22.476" height="22.479"/>
<polygon fill="#E1E3E3" points="190.57,173.183 207.271,188.225 222.315,171.519 205.606,156.48 "/>
<rect x="216.902" y="126.658" transform="matrix(-0.8988 -0.4383 0.4383 -0.8988 372.7506 361.8419)" fill="#E1E3E3" width="22.479" height="22.475"/>
</svg>
