<?xml version="1.0" encoding="utf-8"?>
<!-- Generator: Adobe Illustrator 16.0.0, SVG Export Plug-In . SVG Version: 6.00 Build 0)  -->
<!DOCTYPE svg PUBLIC "-//W3C//DTD SVG 1.1//EN" "http://www.w3.org/Graphics/SVG/1.1/DTD/svg11.dtd">
<svg version="1.1" id="Layer_1" xmlns="http://www.w3.org/2000/svg" xmlns:xlink="http://www.w3.org/1999/xlink" x="0px" y="0px"
	 width="157.359px" height="141.492px" viewBox="0 0 157.359 141.492" enable-background="new 0 0 157.359 141.492"
	 xml:space="preserve">
<rect x="0.036" fill="#46B7BF" width="157.323" height="14.651"/>
<g>
	<path fill="#FFFFFF" d="M33.365,4.371v3.458c0,0.395-0.084,0.74-0.254,1.036c-0.169,0.296-0.414,0.524-0.734,0.683
		c-0.32,0.16-0.703,0.24-1.148,0.24c-0.664,0-1.179-0.176-1.547-0.526c-0.367-0.351-0.552-0.833-0.552-1.447V4.371h0.878v3.381
		c0,0.441,0.102,0.766,0.307,0.976s0.519,0.314,0.943,0.314c0.822,0,1.234-0.433,1.234-1.297V4.371H33.365z"/>
	<path fill="#FFFFFF" d="M34.919,4.371h1.586c0.736,0,1.268,0.107,1.596,0.322c0.327,0.214,0.491,0.553,0.491,1.016
		c0,0.312-0.081,0.572-0.241,0.779s-0.393,0.337-0.694,0.391v0.037c0.375,0.07,0.651,0.21,0.827,0.418
		c0.178,0.208,0.266,0.49,0.266,0.846c0,0.48-0.168,0.856-0.502,1.127c-0.336,0.272-0.802,0.408-1.398,0.408h-1.93V4.371z
		 M35.792,6.578h0.841c0.366,0,0.632-0.058,0.8-0.174c0.169-0.116,0.253-0.312,0.253-0.59c0-0.251-0.091-0.433-0.272-0.545
		c-0.182-0.112-0.47-0.168-0.864-0.168h-0.757V6.578z M35.792,7.287v1.692h0.929c0.365,0,0.642-0.07,0.827-0.21
		c0.188-0.14,0.28-0.361,0.28-0.663c0-0.278-0.095-0.484-0.285-0.618c-0.19-0.134-0.479-0.201-0.866-0.201H35.792z"/>
	<path fill="#FFFFFF" d="M40.048,9.714V4.371h0.873v5.343H40.048z"/>
	<path fill="#FFFFFF" d="M44.792,5.043c-0.502,0-0.896,0.178-1.184,0.534c-0.288,0.356-0.432,0.847-0.432,1.473
		c0,0.656,0.139,1.151,0.414,1.488c0.277,0.336,0.678,0.504,1.201,0.504c0.227,0,0.445-0.022,0.658-0.068
		c0.212-0.045,0.432-0.103,0.661-0.173v0.749c-0.419,0.159-0.894,0.238-1.425,0.238c-0.783,0-1.383-0.237-1.803-0.711
		c-0.418-0.474-0.628-1.152-0.628-2.034c0-0.555,0.102-1.042,0.306-1.458c0.203-0.417,0.497-0.736,0.882-0.958
		c0.386-0.222,0.837-0.333,1.356-0.333c0.545,0,1.05,0.114,1.513,0.343l-0.314,0.728c-0.181-0.085-0.37-0.16-0.571-0.225
		C45.226,5.075,45.014,5.043,44.792,5.043z"/>
	<path fill="#FFFFFF" d="M50.765,9.714L50.232,8.23h-2.043l-0.523,1.484h-0.921l1.999-5.365h0.95l1.999,5.365H50.765z M50.001,7.477
		L49.5,6.022c-0.036-0.097-0.087-0.251-0.151-0.46s-0.109-0.363-0.134-0.46c-0.065,0.3-0.162,0.627-0.288,0.983l-0.482,1.393H50.001
		z"/>
	<path fill="#FFFFFF" d="M54.859,5.043c-0.502,0-0.896,0.178-1.184,0.534c-0.288,0.356-0.432,0.847-0.432,1.473
		c0,0.656,0.139,1.151,0.414,1.488c0.277,0.336,0.678,0.504,1.201,0.504c0.227,0,0.445-0.022,0.658-0.068
		c0.212-0.045,0.432-0.103,0.661-0.173v0.749c-0.419,0.159-0.894,0.238-1.425,0.238c-0.783,0-1.383-0.237-1.803-0.711
		c-0.418-0.474-0.628-1.152-0.628-2.034c0-0.555,0.102-1.042,0.306-1.458c0.203-0.417,0.497-0.736,0.882-0.958
		c0.386-0.222,0.837-0.333,1.356-0.333c0.545,0,1.05,0.114,1.513,0.343l-0.314,0.728c-0.181-0.085-0.37-0.16-0.571-0.225
		C55.292,5.075,55.081,5.043,54.859,5.043z"/>
	<path fill="#FFFFFF" d="M57.517,9.714V4.371h0.873v5.343H57.517z"/>
	<path fill="#FFFFFF" d="M64.732,7.035c0,0.87-0.217,1.546-0.652,2.028s-1.051,0.724-1.848,0.724c-0.807,0-1.426-0.24-1.858-0.718
		c-0.433-0.479-0.648-1.159-0.648-2.041c0-0.882,0.218-1.56,0.652-2.032s1.056-0.709,1.862-0.709c0.794,0,1.408,0.24,1.842,0.72
		S64.732,6.163,64.732,7.035z M60.654,7.035c0,0.658,0.133,1.157,0.398,1.497s0.658,0.51,1.18,0.51c0.52,0,0.91-0.168,1.176-0.504
		c0.264-0.336,0.396-0.837,0.396-1.502c0-0.656-0.131-1.153-0.394-1.491c-0.262-0.339-0.652-0.508-1.171-0.508
		c-0.524,0-0.92,0.169-1.187,0.508C60.787,5.882,60.654,6.379,60.654,7.035z M61.684,3.943V3.852c0.139-0.17,0.282-0.36,0.429-0.57
		c0.148-0.209,0.264-0.388,0.35-0.537h0.998v0.077c-0.127,0.149-0.316,0.341-0.568,0.576c-0.252,0.235-0.465,0.417-0.639,0.546
		H61.684z"/>
	<path fill="#FFFFFF" d="M70.518,9.714h-1.071L66.82,5.456h-0.029l0.018,0.238c0.035,0.453,0.052,0.867,0.052,1.242v2.778h-0.793
		V4.371h1.06l2.621,4.236h0.021c-0.005-0.056-0.015-0.26-0.029-0.612s-0.021-0.626-0.021-0.824V4.371h0.8V9.714z"/>
	<path fill="#FFFFFF" d="M78.593,6.991c0,0.882-0.245,1.556-0.734,2.023c-0.49,0.466-1.195,0.7-2.117,0.7h-1.494V4.371H75.9
		c0.85,0,1.512,0.229,1.984,0.687S78.593,6.16,78.593,6.991z M77.671,7.021c0-1.279-0.598-1.919-1.794-1.919h-0.757v3.878h0.621
		C77.029,8.979,77.671,8.326,77.671,7.021z"/>
	<path fill="#FFFFFF" d="M82.951,9.714h-3.023V4.371h3.023v0.738H80.8v1.455h2.015v0.731H80.8v1.678h2.15V9.714z"/>
	<path fill="#FFFFFF" d="M84.292,9.714V4.371h0.873v4.594h2.263v0.749H84.292z"/>
	<path fill="#FFFFFF" d="M94.206,5.986c0,0.558-0.183,0.986-0.548,1.283c-0.365,0.297-0.887,0.446-1.561,0.446h-0.557v1.999h-0.873
		V4.371h1.539c0.668,0,1.168,0.137,1.5,0.409C94.039,5.053,94.206,5.455,94.206,5.986z M91.541,6.98h0.465
		c0.448,0,0.777-0.078,0.986-0.234c0.21-0.156,0.314-0.399,0.314-0.731c0-0.307-0.094-0.536-0.281-0.687
		c-0.188-0.151-0.48-0.227-0.877-0.227h-0.607V6.98z"/>
	<path fill="#FFFFFF" d="M95.46,9.714V4.371h0.873v5.343H95.46z"/>
	<path fill="#FFFFFF" d="M101.29,9.714h-3.823V9.107l2.693-3.987h-2.619V4.371h3.676v0.614l-2.704,3.98h2.777V9.714z"/>
	<path fill="#FFFFFF" d="M105.738,9.714l-0.533-1.484h-2.043l-0.522,1.484h-0.921l1.999-5.365h0.95l2,5.365H105.738z M104.974,7.477
		l-0.5-1.455c-0.037-0.097-0.088-0.251-0.152-0.46s-0.108-0.363-0.133-0.46c-0.066,0.3-0.162,0.627-0.289,0.983l-0.482,1.393
		H104.974z"/>
	<path fill="#FFFFFF" d="M108.433,7.58v2.134h-0.873V4.371h1.509c0.689,0,1.2,0.129,1.531,0.387c0.331,0.258,0.497,0.648,0.497,1.17
		c0,0.665-0.346,1.139-1.038,1.421l1.51,2.365h-0.994l-1.279-2.134H108.433z M108.433,6.856h0.606c0.407,0,0.702-0.076,0.884-0.227
		c0.184-0.151,0.275-0.375,0.275-0.673c0-0.302-0.1-0.519-0.297-0.65c-0.197-0.131-0.494-0.197-0.892-0.197h-0.577V6.856z"/>
	<path fill="#FFFFFF" d="M113.404,7.58v2.134h-0.873V4.371h1.51c0.689,0,1.199,0.129,1.531,0.387
		c0.331,0.258,0.496,0.648,0.496,1.17c0,0.665-0.346,1.139-1.037,1.421l1.51,2.365h-0.994l-1.279-2.134H113.404z M113.404,6.856
		h0.607c0.406,0,0.701-0.076,0.884-0.227c0.183-0.151,0.274-0.375,0.274-0.673c0-0.302-0.099-0.519-0.297-0.65
		c-0.197-0.131-0.494-0.197-0.891-0.197h-0.578V6.856z"/>
	<path fill="#FFFFFF" d="M122.246,7.035c0,0.87-0.217,1.546-0.652,2.028s-1.051,0.724-1.848,0.724c-0.807,0-1.426-0.24-1.858-0.718
		c-0.433-0.479-0.648-1.159-0.648-2.041c0-0.882,0.218-1.56,0.652-2.032s1.056-0.709,1.862-0.709c0.794,0,1.408,0.24,1.842,0.72
		S122.246,6.163,122.246,7.035z M118.167,7.035c0,0.658,0.133,1.157,0.398,1.497s0.658,0.51,1.18,0.51
		c0.52,0,0.91-0.168,1.176-0.504c0.264-0.336,0.396-0.837,0.396-1.502c0-0.656-0.131-1.153-0.394-1.491
		c-0.262-0.339-0.652-0.508-1.171-0.508c-0.524,0-0.92,0.169-1.187,0.508C118.3,5.882,118.167,6.379,118.167,7.035z M119.198,3.943
		V3.852c0.139-0.17,0.282-0.36,0.429-0.57c0.148-0.209,0.264-0.388,0.35-0.537h0.998v0.077c-0.127,0.149-0.316,0.341-0.568,0.576
		c-0.252,0.235-0.465,0.417-0.639,0.546H119.198z"/>
	<path fill="#FFFFFF" d="M128.032,9.714h-1.071l-2.627-4.258h-0.029l0.018,0.238c0.035,0.453,0.052,0.867,0.052,1.242v2.778h-0.793
		V4.371h1.06l2.621,4.236h0.021c-0.005-0.056-0.015-0.26-0.029-0.612s-0.021-0.626-0.021-0.824V4.371h0.8V9.714z"/>
</g>
<rect x="71.646" y="126.265" fill="#E1E3E3" width="14.102" height="14.369"/>
<rect y="36.003" fill="#E1E3E3" width="14.102" height="14.373"/>
<polygon fill="#E1E3E3" points="14,60.107 15.962,74.338 1.998,76.338 0.036,62.107 "/>
<polygon fill="#E1E3E3" points="59.929,125.147 54.646,138.472 41.571,133.089 46.854,119.764 "/>
<polygon fill="#E1E3E3" points="38.422,115.813 27.941,125.433 18.506,114.751 28.987,105.136 "/>
<polygon fill="#E1E3E3" points="24.277,96.561 11.603,102.861 5.419,89.943 18.093,83.645 "/>
<rect x="143.256" y="36.003" fill="#E1E3E3" width="14.101" height="14.373"/>
<polygon fill="#E1E3E3" points="143.359,60.107 141.397,74.338 155.36,76.338 157.323,62.107 "/>
<polygon fill="#E1E3E3" points="97.427,125.147 102.71,138.472 115.789,133.089 110.503,119.764 "/>
<polygon fill="#E1E3E3" points="118.937,115.813 129.416,125.433 138.853,114.751 128.371,105.136 "/>
<polygon fill="#E1E3E3" points="133.082,96.561 145.757,102.861 151.938,89.943 139.263,83.645 "/>
</svg>
