<?xml version="1.0" encoding="utf-8"?>
<!-- Generator: Adobe Illustrator 16.0.0, SVG Export Plug-In . SVG Version: 6.00 Build 0)  -->
<!DOCTYPE svg PUBLIC "-//W3C//DTD SVG 1.1//EN" "http://www.w3.org/Graphics/SVG/1.1/DTD/svg11.dtd">
<svg version="1.1" id="Layer_1" xmlns="http://www.w3.org/2000/svg" xmlns:xlink="http://www.w3.org/1999/xlink" x="0px" y="0px"
	 width="157.425px" height="132.819px" viewBox="0 0 157.425 132.819" enable-background="new 0 0 157.425 132.819"
	 xml:space="preserve">
<rect x="0.652" fill="#46B7BF" width="156.772" height="14.685"/>
<g>
	<path fill="#FFFFFF" d="M42.06,3.931v3.695c0,0.422-0.09,0.791-0.271,1.107s-0.443,0.56-0.785,0.73S40.251,9.72,39.775,9.72
		c-0.708,0-1.259-0.188-1.652-0.562s-0.59-0.891-0.59-1.547v-3.68h0.938v3.613c0,0.471,0.109,0.819,0.328,1.043
		s0.555,0.336,1.008,0.336c0.88,0,1.32-0.462,1.32-1.387V3.931H42.06z"/>
	<path fill="#FFFFFF" d="M45.559,5.243c0.539,0,0.959,0.195,1.26,0.586s0.451,0.939,0.451,1.645c0,0.708-0.152,1.26-0.457,1.654
		s-0.728,0.592-1.27,0.592c-0.547,0-0.971-0.197-1.273-0.59h-0.062l-0.168,0.512h-0.688V3.563h0.918v1.445
		c0,0.107-0.005,0.266-0.016,0.477s-0.018,0.345-0.023,0.402h0.039C44.561,5.458,44.991,5.243,45.559,5.243z M45.32,5.993
		c-0.37,0-0.636,0.109-0.799,0.326s-0.247,0.582-0.252,1.092v0.062c0,0.526,0.083,0.907,0.25,1.143s0.439,0.354,0.816,0.354
		c0.326,0,0.572-0.129,0.74-0.387s0.252-0.63,0.252-1.117C46.328,6.484,45.992,5.993,45.32,5.993z"/>
	<path fill="#FFFFFF" d="M48.201,4.177c0-0.164,0.045-0.291,0.135-0.379s0.218-0.133,0.385-0.133c0.162,0,0.287,0.044,0.377,0.133
		s0.135,0.215,0.135,0.379c0,0.156-0.045,0.279-0.135,0.369s-0.215,0.135-0.377,0.135c-0.167,0-0.295-0.045-0.385-0.135
		S48.201,4.333,48.201,4.177z M49.174,9.642h-0.918v-4.32h0.918V9.642z"/>
	<path fill="#FFFFFF" d="M52.148,9.72c-0.654,0-1.15-0.191-1.49-0.572s-0.51-0.929-0.51-1.643c0-0.727,0.178-1.285,0.533-1.676
		s0.869-0.586,1.541-0.586c0.456,0,0.866,0.084,1.23,0.254l-0.277,0.738c-0.388-0.151-0.708-0.227-0.961-0.227
		c-0.748,0-1.121,0.496-1.121,1.488c0,0.484,0.093,0.848,0.279,1.092s0.459,0.365,0.818,0.365c0.409,0,0.795-0.102,1.16-0.305V9.45
		c-0.164,0.096-0.339,0.166-0.525,0.207S52.414,9.72,52.148,9.72z"/>
	<path fill="#FFFFFF" d="M56.926,9.642L56.743,9.04h-0.031c-0.208,0.263-0.418,0.442-0.629,0.537S55.601,9.72,55.27,9.72
		c-0.424,0-0.756-0.115-0.994-0.344s-0.357-0.553-0.357-0.973c0-0.445,0.166-0.781,0.496-1.008s0.834-0.35,1.512-0.371l0.746-0.023
		v-0.23c0-0.276-0.064-0.482-0.193-0.619s-0.329-0.205-0.6-0.205c-0.221,0-0.434,0.033-0.637,0.098s-0.398,0.142-0.586,0.23
		L54.36,5.618c0.234-0.123,0.491-0.215,0.77-0.279s0.542-0.096,0.789-0.096c0.549,0,0.964,0.12,1.244,0.359s0.42,0.616,0.42,1.129
		v2.91H56.926z M55.559,9.017c0.333,0,0.601-0.093,0.803-0.279s0.303-0.447,0.303-0.783V7.579L56.11,7.603
		c-0.432,0.016-0.747,0.088-0.943,0.217s-0.295,0.326-0.295,0.592c0,0.193,0.057,0.342,0.172,0.447S55.33,9.017,55.559,9.017z"/>
	<path fill="#FFFFFF" d="M60.534,9.72c-0.654,0-1.15-0.191-1.49-0.572s-0.51-0.929-0.51-1.643c0-0.727,0.178-1.285,0.533-1.676
		s0.869-0.586,1.541-0.586c0.456,0,0.866,0.084,1.23,0.254l-0.277,0.738c-0.388-0.151-0.708-0.227-0.961-0.227
		c-0.748,0-1.121,0.496-1.121,1.488c0,0.484,0.093,0.848,0.279,1.092s0.459,0.365,0.818,0.365c0.409,0,0.795-0.102,1.16-0.305V9.45
		c-0.164,0.096-0.339,0.166-0.525,0.207S60.799,9.72,60.534,9.72z"/>
	<path fill="#FFFFFF" d="M62.626,4.177c0-0.164,0.045-0.291,0.135-0.379s0.218-0.133,0.385-0.133c0.162,0,0.287,0.044,0.377,0.133
		s0.135,0.215,0.135,0.379c0,0.156-0.045,0.279-0.135,0.369s-0.215,0.135-0.377,0.135c-0.167,0-0.295-0.045-0.385-0.135
		S62.626,4.333,62.626,4.177z M63.599,9.642h-0.918v-4.32h0.918V9.642z"/>
	<path fill="#FFFFFF" d="M68.663,7.474c0,0.706-0.181,1.256-0.543,1.652S67.254,9.72,66.608,9.72c-0.404,0-0.76-0.091-1.07-0.273
		s-0.548-0.444-0.715-0.785s-0.25-0.737-0.25-1.188c0-0.701,0.18-1.248,0.539-1.641s0.866-0.59,1.52-0.59
		c0.625,0,1.12,0.201,1.484,0.604S68.663,6.792,68.663,7.474z M65.519,7.474c0,0.998,0.369,1.496,1.105,1.496
		c0.729,0,1.094-0.499,1.094-1.496c0-0.987-0.367-1.48-1.102-1.48c-0.385,0-0.665,0.127-0.838,0.383S65.519,6.997,65.519,7.474z
		 M66.022,4.794V4.696c0.148-0.182,0.301-0.385,0.459-0.609s0.282-0.416,0.373-0.574h1.066v0.082
		c-0.135,0.159-0.338,0.364-0.607,0.615s-0.497,0.446-0.682,0.584H66.022z"/>
	<path fill="#FFFFFF" d="M73.438,9.642h-0.922V6.985c0-0.333-0.067-0.582-0.201-0.746s-0.347-0.246-0.639-0.246
		c-0.388,0-0.672,0.115-0.852,0.344s-0.27,0.613-0.27,1.152v2.152h-0.918v-4.32h0.719l0.129,0.566h0.047
		c0.13-0.206,0.315-0.365,0.555-0.477s0.505-0.168,0.797-0.168c1.037,0,1.555,0.527,1.555,1.582V9.642z"/>
	<path fill="#FFFFFF" d="M78.091,9.72c-0.539,0-0.959-0.195-1.262-0.586s-0.453-0.939-0.453-1.645c0-0.708,0.153-1.26,0.459-1.654
		s0.73-0.592,1.271-0.592c0.568,0,1,0.209,1.297,0.629h0.047c-0.044-0.31-0.066-0.555-0.066-0.734V3.563h0.922v6.078h-0.719
		l-0.16-0.566h-0.043C79.09,9.505,78.659,9.72,78.091,9.72z M78.337,8.978c0.377,0,0.652-0.106,0.824-0.318s0.26-0.557,0.266-1.033
		V7.497c0-0.544-0.088-0.931-0.266-1.16s-0.455-0.344-0.832-0.344c-0.323,0-0.572,0.131-0.746,0.393s-0.262,0.635-0.262,1.119
		c0,0.479,0.084,0.844,0.254,1.096S77.999,8.978,78.337,8.978z"/>
	<path fill="#FFFFFF" d="M83.425,9.72c-0.672,0-1.197-0.196-1.576-0.588S81.281,8.2,81.281,7.513c0-0.706,0.176-1.26,0.527-1.664
		s0.834-0.605,1.449-0.605c0.57,0,1.021,0.173,1.352,0.52s0.496,0.823,0.496,1.43v0.496h-2.879c0.013,0.419,0.126,0.742,0.34,0.967
		s0.514,0.338,0.902,0.338c0.255,0,0.493-0.024,0.713-0.072s0.457-0.128,0.709-0.24v0.746c-0.224,0.107-0.451,0.182-0.68,0.227
		S83.72,9.72,83.425,9.72z M83.257,5.938c-0.292,0-0.525,0.092-0.701,0.277s-0.281,0.455-0.314,0.809h1.961
		c-0.005-0.357-0.091-0.627-0.258-0.811S83.549,5.938,83.257,5.938z"/>
	<path fill="#FFFFFF" d="M86.994,9.642h-0.918V3.563h0.918V9.642z"/>
	<path fill="#FFFFFF" d="M94.104,5.657c0,0.596-0.195,1.053-0.586,1.371s-0.947,0.477-1.668,0.477h-0.594v2.137h-0.934V3.931h1.645
		c0.713,0,1.248,0.146,1.604,0.438S94.104,5.089,94.104,5.657z M91.256,6.72h0.496c0.479,0,0.831-0.083,1.055-0.25
		s0.336-0.427,0.336-0.781c0-0.328-0.1-0.573-0.301-0.734s-0.513-0.242-0.938-0.242h-0.648V6.72z"/>
	<path fill="#FFFFFF" d="M95.02,4.177c0-0.164,0.045-0.291,0.135-0.379s0.218-0.133,0.385-0.133c0.162,0,0.287,0.044,0.377,0.133
		s0.135,0.215,0.135,0.379c0,0.156-0.045,0.279-0.135,0.369s-0.215,0.135-0.377,0.135c-0.167,0-0.295-0.045-0.385-0.135
		S95.02,4.333,95.02,4.177z M95.992,9.642h-0.918v-4.32h0.918V9.642z"/>
	<path fill="#FFFFFF" d="M100.111,9.642h-3.277V9.075l2.184-3.051h-2.051V5.321h3.082v0.641l-2.137,2.977h2.199V9.642z"/>
	<path fill="#FFFFFF" d="M103.544,9.642L103.36,9.04h-0.031c-0.208,0.263-0.418,0.442-0.629,0.537s-0.482,0.143-0.812,0.143
		c-0.424,0-0.756-0.115-0.994-0.344s-0.357-0.553-0.357-0.973c0-0.445,0.166-0.781,0.496-1.008s0.834-0.35,1.512-0.371l0.746-0.023
		v-0.23c0-0.276-0.064-0.482-0.193-0.619s-0.329-0.205-0.6-0.205c-0.221,0-0.434,0.033-0.637,0.098s-0.398,0.142-0.586,0.23
		l-0.297-0.656c0.234-0.123,0.491-0.215,0.77-0.279s0.542-0.096,0.789-0.096c0.549,0,0.964,0.12,1.244,0.359s0.42,0.616,0.42,1.129
		v2.91H103.544z M102.177,9.017c0.333,0,0.601-0.093,0.803-0.279s0.303-0.447,0.303-0.783V7.579l-0.555,0.023
		c-0.432,0.016-0.747,0.088-0.943,0.217s-0.295,0.326-0.295,0.592c0,0.193,0.057,0.342,0.172,0.447S101.948,9.017,102.177,9.017z"/>
	<path fill="#FFFFFF" d="M107.593,5.243c0.185,0,0.337,0.013,0.457,0.039l-0.09,0.855c-0.13-0.031-0.266-0.047-0.406-0.047
		c-0.367,0-0.665,0.12-0.893,0.359s-0.342,0.551-0.342,0.934v2.258h-0.918v-4.32h0.719l0.121,0.762h0.047
		c0.143-0.258,0.33-0.462,0.561-0.613S107.328,5.243,107.593,5.243z"/>
	<path fill="#FFFFFF" d="M110.97,5.243c0.185,0,0.337,0.013,0.457,0.039l-0.09,0.855c-0.13-0.031-0.266-0.047-0.406-0.047
		c-0.367,0-0.665,0.12-0.893,0.359s-0.342,0.551-0.342,0.934v2.258h-0.918v-4.32h0.719l0.121,0.762h0.047
		c0.143-0.258,0.33-0.462,0.561-0.613S110.705,5.243,110.97,5.243z"/>
	<path fill="#FFFFFF" d="M115.852,7.474c0,0.706-0.181,1.256-0.543,1.652s-0.866,0.594-1.512,0.594c-0.404,0-0.76-0.091-1.07-0.273
		s-0.548-0.444-0.715-0.785s-0.25-0.737-0.25-1.188c0-0.701,0.18-1.248,0.539-1.641s0.866-0.59,1.52-0.59
		c0.625,0,1.12,0.201,1.484,0.604S115.852,6.792,115.852,7.474z M112.708,7.474c0,0.998,0.369,1.496,1.105,1.496
		c0.729,0,1.094-0.499,1.094-1.496c0-0.987-0.367-1.48-1.102-1.48c-0.385,0-0.665,0.127-0.838,0.383S112.708,6.997,112.708,7.474z
		 M113.211,4.794V4.696c0.148-0.182,0.301-0.385,0.459-0.609s0.282-0.416,0.373-0.574h1.066v0.082
		c-0.135,0.159-0.338,0.364-0.607,0.615s-0.497,0.446-0.682,0.584H113.211z"/>
	<path fill="#FFFFFF" d="M120.627,9.642h-0.922V6.985c0-0.333-0.067-0.582-0.201-0.746s-0.347-0.246-0.639-0.246
		c-0.388,0-0.672,0.115-0.852,0.344s-0.27,0.613-0.27,1.152v2.152h-0.918v-4.32h0.719l0.129,0.566h0.047
		c0.13-0.206,0.315-0.365,0.555-0.477s0.505-0.168,0.797-0.168c1.037,0,1.555,0.527,1.555,1.582V9.642z"/>
</g>
<rect x="71.396" y="118.769" fill="#E1E3E3" width="14.053" height="14.051"/>
<rect y="30.507" fill="#E1E3E3" width="14.053" height="14.053"/>
<rect x="0.945" y="54.987" transform="matrix(-0.1391 -0.9903 0.9903 -0.1391 -52.3301 78.535)" fill="#E1E3E3" width="14.052" height="14.053"/>
<rect x="43.546" y="114.531" transform="matrix(0.3746 -0.9272 0.9272 0.3746 -81.0784 122.9075)" fill="#E1E3E3" width="14.053" height="14.052"/>
<rect x="21.338" y="101.003" transform="matrix(0.7432 -0.6691 0.6691 0.7432 -64.9995 46.7266)" fill="#E1E3E3" width="14.055" height="14.053"/>
<rect x="7.77" y="79.462" transform="matrix(0.8988 -0.4384 0.4384 0.8988 -36.417 15.2399)" fill="#E1E3E3" width="14.052" height="14.053"/>
<rect x="142.756" y="30.507" fill="#E1E3E3" width="14.052" height="14.053"/>
<rect x="141.811" y="54.988" transform="matrix(0.1392 -0.9903 0.9903 0.1392 66.7098 200.7697)" fill="#E1E3E3" width="14.052" height="14.051"/>
<rect x="99.21" y="114.531" transform="matrix(-0.3746 -0.9272 0.9272 -0.3746 33.3221 265.5921)" fill="#E1E3E3" width="14.052" height="14.054"/>
<polygon fill="#E1E3E3" points="118.521,108.55 128.963,117.954 138.369,107.51 127.922,98.107 "/>
<rect x="134.984" y="79.462" transform="matrix(-0.8988 -0.4383 0.4383 -0.8988 231.7435 226.4715)" fill="#E1E3E3" width="14.054" height="14.051"/>
</svg>
