<?xml version="1.0" encoding="utf-8"?>
<!-- Generator: Adobe Illustrator 16.0.0, SVG Export Plug-In . SVG Version: 6.00 Build 0)  -->
<!DOCTYPE svg PUBLIC "-//W3C//DTD SVG 1.1//EN" "http://www.w3.org/Graphics/SVG/1.1/DTD/svg11.dtd">
<svg version="1.1" id="Layer_1" xmlns="http://www.w3.org/2000/svg" xmlns:xlink="http://www.w3.org/1999/xlink" x="0px" y="0px"
	 width="300px" height="300px" viewBox="0 0 300 300" enable-background="new 0 0 300 300" xml:space="preserve">
<g>
	<path fill="#F0F0F0" d="M164.17,115.266c1.793,0,3.521,0.288,5.186,0.767l31.044-38.053c1.984-2.433,5.665-2.881,8.065-0.833
		c2.336,1.952,2.656,5.441,0.704,7.809l-30.693,37.638c2.081,2.881,3.329,6.433,3.329,10.274c0,7.137-4.289,13.313-10.401,16.066
		H291.84c4.416,0,8.001-3.585,8.001-8.001V39.637c0-4.417-3.585-8.001-8.001-8.001H138.854c-4.416,0-8.001,3.584-8.001,8.001v66.507
		l7.233,9.153h26.084V115.266z M164.17,115.266"/>
	<g>
		<defs>
			<rect id="SVGID_1_" y="6" width="300" height="287.646"/>
		</defs>
		<clipPath id="SVGID_2_">
			<use xlink:href="#SVGID_1_"  overflow="visible"/>
		</clipPath>
		<path clip-path="url(#SVGID_2_)" fill="#F0F0F0" d="M97.151,38.774c0,18.1-14.674,32.772-32.774,32.772
			c-18.1,0-32.771-14.672-32.771-32.772C31.606,20.673,46.277,6,64.377,6C82.477,6,97.151,20.673,97.151,38.774L97.151,38.774z
			 M97.151,38.774"/>
		<path clip-path="url(#SVGID_2_)" fill="#F0F0F0" d="M97.983,285.437c0,4.418-3.585,8.002-8.001,8.002H76.541
			c-4.417,0-8.001-3.584-8.001-8.002v-67.082c0-2.369-1.921-4.29-4.289-4.29s-4.289,1.921-4.289,4.29v66.763
			c0,4.576-3.745,8.321-8.322,8.321H38.485c-4.416,0-8-3.584-8-8.002L30.42,123.491c0-2.177-1.759-3.967-3.97-3.967
			c-2.175,0-3.967,1.759-3.967,3.967v62.282c0,4.416-3.585,8.002-8.001,8.002H7.954c-4.417,0-8.001-3.586-8.001-8.002v-85.389
			c0-10.146,8.224-18.34,18.338-18.34h72.876c7.808,0,15.202,3.585,20.067,9.698l19.587,24.707l4.128,5.218
			c0,0,18.563,0,29.252,0.031c4.418,0,8.002,3.584,8.002,8.001v6.37c0,4.417-3.584,8.001-8.002,8.001h-34.628
			c-3.425,0-6.659-1.57-8.771-4.257l-14.592-18.754c-0.736-0.961-1.921-1.536-3.137-1.536h-0.993c-2.176,0-3.968,1.759-3.968,3.967
			L97.983,285.437z M97.983,285.437"/>
	</g>
</g>
</svg>
