<?xml version="1.0" encoding="utf-8"?>
<!-- Generator: Adobe Illustrator 16.0.0, SVG Export Plug-In . SVG Version: 6.00 Build 0)  -->
<!DOCTYPE svg PUBLIC "-//W3C//DTD SVG 1.1//EN" "http://www.w3.org/Graphics/SVG/1.1/DTD/svg11.dtd">
<svg version="1.1" id="Layer_1" xmlns="http://www.w3.org/2000/svg" xmlns:xlink="http://www.w3.org/1999/xlink" x="0px" y="0px"
	 width="300px" height="300px" viewBox="0 0 300 300" enable-background="new 0 0 300 300" xml:space="preserve">
<g id="Layer_1_1_">
	<g>
		<g>
			<path fill="#B5E2E5" d="M276.407,83.853c-0.173-1.225-1.353-2.387-2.373-3.134c-0.851-0.622-1.583-1.205-2.646-1.205
				c-1.519,0-2.668,0.991-3.591,2.146c0,0-17.844,22.524-24.089,30.241c-0.697,0.863-1.867,0.523-1.867,0.523L213.45,97.935
				c-1.068-0.545-2.28-0.834-3.513-0.834c-2.537,0-4.891,1.176-6.297,3.145l-19.531,27.386c-0.012,0.002-0.364,0.813-1.334,0.813
				h-19.826c-2.658,0-3.352,2.075-3.352,4.625c0,2.548,0.692,4.624,3.352,4.624h21.601c2.901,0,5.235-1.667,6.872-3.962
				c0.146-0.201,14.051-19.589,18.725-26.216c0.488-0.694,1.142-0.208,1.142-0.208l28.508,14.55c1.071,0.547,3.007,1.19,4.265,1.19
				c2.453,0,3.521-0.823,4.957-2.627l26.445-33.145C276.242,86.292,276.577,85.077,276.407,83.853z"/>
			<g>
				<path fill="#B5E2E5" d="M72.986,74.352c18.752,0,33.943-15.208,33.943-33.963c0-18.733-15.19-33.944-33.943-33.944
					c-18.757,0-33.963,15.211-33.963,33.944C39.022,59.143,54.228,74.352,72.986,74.352z"/>
				<path fill="#B5E2E5" d="M222.213,153.125c-0.41-2.451-2.738-4.105-5.184-3.693l-56.877,4.603
					c-1.823-0.319-2.523-1.748-3.273-2.594c-0.371-0.418-0.773-0.818-1.211-1.192c-8.013-6.885-20.042-1.636-23.723-13.36
					c-8.141-25.93-19.176-54.274-36.381-54.274c-0.676,0-39.734,0-45.311,0c-17.869,0-27.975,36.159-36.947,61.807
					c-3.45,9.778-6.98,19.895-11.218,29.579c-2.919,6.679-2.321,14.448,4.359,17.367c1.714,0.739,3.497,1.106,5.261,1.106
					c5.082,0,8.748-3.904,10.911-8.854c3.31-7.59,8.696-24.079,12.229-34.194c0.821-2.354,1.843-3.884,1.64,0.206v34.249
					c0,1.578,0.366,3.073,1.013,4.408c0.404,0.829,1.593,2.142,1.521,3.88v90.191c0,9.052,6.224,16.387,14.914,16.387
					c8.689,0,14.096-7.335,14.096-16.387v-85.797c0,0-0.017-2.476,3.117-2.476c0.282,0,0.846,0,1.126,0
					c3.168,0,3.153,2.476,3.153,2.476v85.797c0,9.052,5.409,16.387,14.096,16.387c8.688,0,14.916-7.335,14.916-16.387v-86.816
					c0-2.557,1.88-4.381,2.613-5.289c1.411-1.747,2.261-3.964,2.261-6.374v-35.581c0-7.867,3.611,10.129,13.438,14.824
					c7.188,3.432,27.462,7.848,32.711,4.51c1.297-0.824,2.301-1.871,3.03-3.047c0.288-0.461,0.858-1.463,2.444-1.609l57.582-4.67
					C220.971,157.895,222.625,155.574,222.213,153.125z M87.091,143.208l-12.063,11.097c-1.129,1.037-2.976,1.037-4.103,0
					L58.86,143.208c-1.129-1.039-1.794-3.115-1.48-4.614l6.29-30.038c0.094-0.45,0.38-1.809,0.354-2.117
					c-0.124-1.586-0.494-6.335-0.494-6.335c-0.12-1.529,1.036-2.78,2.569-2.78h13.754c1.532,0,2.688,1.25,2.568,2.78
					c0,0-0.371,4.75-0.494,6.335c-0.023,0.307,0.261,1.667,0.354,2.117l6.291,30.038C88.886,140.095,88.221,142.172,87.091,143.208z
					"/>
			</g>
			<path fill="#B5E2E5" d="M295.484,62.359c2.199-0.886,3.787-3.242,3.787-5.995v-4.278c0-3.506-2.572-6.375-5.715-6.375H141.021
				c-3.145,0-5.715,2.869-5.715,6.375v4.278c0,2.517,1.326,4.702,3.234,5.735c0.637,0.344,2.079,0.614,2.079,1.962
				c0,0,0,54.979,0,73.305c0,1.713,1.306,1.565,1.306,1.565l6.869-0.733c0,0,1.539-0.112,1.539-1.56c0-25.744,0-54.157,0-72.197
				c0-1.145,1.42-1.345,1.42-1.345h130.761c0,0,1.731-0.091,1.731,1.59c0,26.871,0,79.999,0,106.664c0,0.926-0.927,0.82-0.927,0.82
				s-85.102,0-113.978,0c-8.079,0-32.094,4.184-32.094,4.184c-1.941,0.178-1.941,1.754-1.941,2.613v4.28
				c0,3.508,2.57,6.377,5.715,6.377h152.536c3.143,0,5.715-2.869,5.715-6.377v-4.28c0-3.066-1.971-5.645-4.567-6.236
				c-0.242-0.056-0.745-0.032-0.745-0.933V64.309C293.959,62.926,295.002,62.553,295.484,62.359z"/>
			<path fill="#B5E2E5" d="M236.055,27.693c-2.152-0.001-5.272-1.265-6.928-2.809l-8.822-8.228
				c-1.654-1.544-4.296-1.459-5.867,0.187l-7.4,7.74c-1.574,1.647-4.624,3.008-6.778,3.028l-7.188,0.062
				c-2.158,0.021-2.637-1.311-1.062-2.958l22.415-23.454c1.576-1.645,4.183-1.687,5.798-0.092l23.924,23.633
				c1.617,1.594,1.172,2.898-0.982,2.897L236.055,27.693z"/>
		</g>
	</g>
</g>
</svg>
